<svg width="30" height="34" viewBox="0 0 30 34" fill="none" xmlns="http://www.w3.org/2000/svg">
<path d="M5 33.9166H25C26.3261 33.9166 27.5979 33.3898 28.5355 32.4521C29.4732 31.5144 30 30.2427 30 28.9166V8.91658C30 8.03253 29.6488 7.18468 29.0237 6.55956C28.3986 5.93444 27.5507 5.58325 26.6667 5.58325H23.3333V2.24992C23.3333 1.80789 23.1577 1.38397 22.8452 1.07141C22.5326 0.758847 22.1087 0.583252 21.6667 0.583252C21.2246 0.583252 20.8007 0.758847 20.4882 1.07141C20.1756 1.38397 20 1.80789 20 2.24992V5.58325H10V2.24992C10 1.80789 9.8244 1.38397 9.51184 1.07141C9.19928 0.758847 8.77536 0.583252 8.33333 0.583252C7.89131 0.583252 7.46738 0.758847 7.15482 1.07141C6.84226 1.38397 6.66667 1.80789 6.66667 2.24992V5.58325H3.33333C2.44928 5.58325 1.60143 5.93444 0.976311 6.55956C0.351189 7.18468 0 8.03253 0 8.91658V28.9166C0 30.2427 0.526784 31.5144 1.46447 32.4521C2.40215 33.3898 3.67392 33.9166 5 33.9166ZM3.33333 18.0833C3.33333 17.8622 3.42113 17.6503 3.57741 17.494C3.73369 17.3377 3.94565 17.2499 4.16667 17.2499H25.8333C26.0543 17.2499 26.2663 17.3377 26.4226 17.494C26.5789 17.6503 26.6667 17.8622 26.6667 18.0833V28.9166C26.6667 29.3586 26.4911 29.7825 26.1785 30.0951C25.866 30.4077 25.442 30.5833 25 30.5833H5C4.55797 30.5833 4.13405 30.4077 3.82149 30.0951C3.50893 29.7825 3.33333 29.3586 3.33333 28.9166V18.0833Z" fill="#01B851"/>
</svg>
