<svg width="28" height="36" viewBox="0 0 28 36" fill="none" xmlns="http://www.w3.org/2000/svg">
<path d="M7.08366 7.41667H25.417C25.859 7.41667 26.2829 7.59226 26.5955 7.90482C26.9081 8.21738 27.0837 8.64131 27.0837 9.08333V34.0833C27.0837 34.5254 26.9081 34.9493 26.5955 35.2618C26.2829 35.5744 25.859 35.75 25.417 35.75H2.08366C1.64163 35.75 1.21771 35.5744 0.905148 35.2618C0.592587 34.9493 0.416992 34.5254 0.416992 34.0833V17.4167L7.08366 7.41667ZM15.417 0.75H23.7503C24.1924 0.75 24.6163 0.925595 24.9288 1.23816C25.2414 1.55072 25.417 1.97464 25.417 2.41667V5.75H13.7503V2.41667C13.7503 1.97464 13.9259 1.55072 14.2385 1.23816C14.551 0.925595 14.975 0.75 15.417 0.75ZM3.75033 19.0833V30.75H7.08366V19.0833H3.75033Z" fill="#01B851"/>
</svg>
