<svg width="26" height="26" viewBox="0 0 26 26" fill="none" xmlns="http://www.w3.org/2000/svg">
<path d="M12.9998 0.166638C10.4616 0.166638 7.98046 0.919299 5.87002 2.32944C3.75959 3.73959 2.11471 5.74388 1.14339 8.08887C0.172064 10.4339 -0.0820784 13.0142 0.413099 15.5036C0.908276 17.9931 2.13053 20.2797 3.92531 22.0745C5.72008 23.8693 8.00676 25.0915 10.4962 25.5867C12.9856 26.0819 15.566 25.8277 17.9109 24.8564C20.2559 23.8851 22.2602 22.2402 23.6704 20.1298C25.0805 18.0194 25.8332 15.5382 25.8332 13C25.8409 11.3125 25.5142 9.64024 24.872 8.07975C24.2298 6.51925 23.2848 5.10144 22.0916 3.90822C20.8984 2.71499 19.4806 1.76999 17.9201 1.12779C16.3596 0.485587 14.6873 0.158915 12.9998 0.166638ZM19.8248 17.0833C19.7199 17.2543 19.5747 17.3969 19.4018 17.4986C19.2288 17.6003 19.0336 17.658 18.8332 17.6666C18.6262 17.6639 18.4241 17.6033 18.2498 17.4916L11.8332 13.6416V7.16664C11.8332 6.85722 11.9561 6.56047 12.1749 6.34168C12.3937 6.12289 12.6904 5.99997 12.9998 5.99997C13.3093 5.99997 13.606 6.12289 13.8248 6.34168C14.0436 6.56047 14.1665 6.85722 14.1665 7.16664V12.3583L19.4165 15.5083C19.5511 15.5806 19.6693 15.68 19.7637 15.8001C19.8581 15.9203 19.9266 16.0587 19.9649 16.2066C20.0033 16.3545 20.0106 16.5087 19.9865 16.6596C19.9624 16.8104 19.9074 16.9547 19.8248 17.0833Z" fill="#FFFF05"/>
</svg>
