<svg width="29" height="28" viewBox="0 0 29 28" fill="none" xmlns="http://www.w3.org/2000/svg">
<g id="instagram-1_svgrepo.com" clip-path="url(#clip0_1_4457)">
<path id="Vector" d="M22.3662 0H6.36621C3.0525 0 0.366211 2.68629 0.366211 6V22C0.366211 25.3137 3.0525 28 6.36621 28H22.3662C25.6799 28 28.3662 25.3137 28.3662 22V6C28.3662 2.68629 25.6799 0 22.3662 0Z" fill="url(#paint0_radial_1_4457)"/>
<path id="Vector_2" d="M22.3662 0H6.36621C3.0525 0 0.366211 2.68629 0.366211 6V22C0.366211 25.3137 3.0525 28 6.36621 28H22.3662C25.6799 28 28.3662 25.3137 28.3662 22V6C28.3662 2.68629 25.6799 0 22.3662 0Z" fill="url(#paint1_radial_1_4457)"/>
<path id="Vector_3" d="M22.3662 0H6.36621C3.0525 0 0.366211 2.68629 0.366211 6V22C0.366211 25.3137 3.0525 28 6.36621 28H22.3662C25.6799 28 28.3662 25.3137 28.3662 22V6C28.3662 2.68629 25.6799 0 22.3662 0Z" fill="url(#paint2_radial_1_4457)"/>
<path id="Vector_4" d="M21.3662 8.5C21.3662 9.3284 20.6946 10 19.8662 10C19.0378 10 18.3662 9.3284 18.3662 8.5C18.3662 7.67157 19.0378 7 19.8662 7C20.6946 7 21.3662 7.67157 21.3662 8.5Z" fill="white"/>
<path id="Vector_5" fill-rule="evenodd" clip-rule="evenodd" d="M14.3662 19C17.1276 19 19.3662 16.7614 19.3662 14C19.3662 11.2386 17.1276 9 14.3662 9C11.6048 9 9.36621 11.2386 9.36621 14C9.36621 16.7614 11.6048 19 14.3662 19ZM14.3662 17C16.0231 17 17.3662 15.6569 17.3662 14C17.3662 12.3431 16.0231 11 14.3662 11C12.7093 11 11.3662 12.3431 11.3662 14C11.3662 15.6569 12.7093 17 14.3662 17Z" fill="white"/>
<path id="Vector_6" fill-rule="evenodd" clip-rule="evenodd" d="M4.36621 13.6C4.36621 10.2397 4.36621 8.5595 5.02017 7.27606C5.59541 6.14708 6.51329 5.2292 7.64227 4.65396C8.92571 4 10.6059 4 13.9662 4H14.7662C18.1265 4 19.8067 4 21.0901 4.65396C22.2191 5.2292 23.137 6.14708 23.7122 7.27606C24.3662 8.5595 24.3662 10.2397 24.3662 13.6V14.4C24.3662 17.7603 24.3662 19.4405 23.7122 20.7239C23.137 21.8529 22.2191 22.7708 21.0901 23.346C19.8067 24 18.1265 24 14.7662 24H13.9662C10.6059 24 8.92571 24 7.64227 23.346C6.51329 22.7708 5.59541 21.8529 5.02017 20.7239C4.36621 19.4405 4.36621 17.7603 4.36621 14.4V13.6ZM13.9662 6H14.7662C16.4794 6 17.6439 6.00156 18.5441 6.0751C19.421 6.14674 19.8694 6.27659 20.1822 6.43597C20.9348 6.81947 21.5467 7.43139 21.9302 8.184C22.0896 8.4968 22.2195 8.9452 22.2911 9.8221C22.3646 10.7223 22.3662 11.8868 22.3662 13.6V14.4C22.3662 16.1132 22.3646 17.2777 22.2911 18.1779C22.2195 19.0548 22.0896 19.5032 21.9302 19.816C21.5467 20.5686 20.9348 21.1805 20.1822 21.564C19.8694 21.7234 19.421 21.8533 18.5441 21.9249C17.6439 21.9984 16.4794 22 14.7662 22H13.9662C12.253 22 11.0885 21.9984 10.1883 21.9249C9.31141 21.8533 8.86301 21.7234 8.55021 21.564C7.7976 21.1805 7.18568 20.5686 6.80218 19.816C6.6428 19.5032 6.51295 19.0548 6.44131 18.1779C6.36777 17.2777 6.36621 16.1132 6.36621 14.4V13.6C6.36621 11.8868 6.36777 10.7223 6.44131 9.8221C6.51295 8.9452 6.6428 8.4968 6.80218 8.184C7.18568 7.43139 7.7976 6.81947 8.55021 6.43597C8.86301 6.27659 9.31141 6.14674 10.1883 6.0751C11.0885 6.00156 12.253 6 13.9662 6Z" fill="white"/>
</g>
<defs>
<radialGradient id="paint0_radial_1_4457" cx="0" cy="0" r="1" gradientUnits="userSpaceOnUse" gradientTransform="translate(10.3662 21) rotate(-55.3758) scale(25.5196)">
<stop stop-color="#B13589"/>
<stop offset="0.79309" stop-color="#C62F94"/>
<stop offset="1" stop-color="#8A3AC8"/>
</radialGradient>
<radialGradient id="paint1_radial_1_4457" cx="0" cy="0" r="1" gradientUnits="userSpaceOnUse" gradientTransform="translate(9.36621 29) rotate(-65.1363) scale(22.5942)">
<stop stop-color="#E0E8B7"/>
<stop offset="0.444662" stop-color="#FB8A2E"/>
<stop offset="0.71474" stop-color="#E2425C"/>
<stop offset="1" stop-color="#E2425C" stop-opacity="0"/>
</radialGradient>
<radialGradient id="paint2_radial_1_4457" cx="0" cy="0" r="1" gradientUnits="userSpaceOnUse" gradientTransform="translate(-1.13379 1) rotate(-8.1301) scale(38.8909 8.31836)">
<stop offset="0.156701" stop-color="#406ADC"/>
<stop offset="0.467799" stop-color="#6A45BE"/>
<stop offset="1" stop-color="#6A45BE" stop-opacity="0"/>
</radialGradient>
<clipPath id="clip0_1_4457">
<rect width="28" height="28" fill="white" transform="translate(0.5)"/>
</clipPath>
</defs>
</svg>
