<svg width="36" height="36" viewBox="0 0 36 36" fill="none" xmlns="http://www.w3.org/2000/svg">
<g clip-path="url(#clip0_1_4152)">
<path d="M28.1138 0H7.54241C3.28193 0 -0.171875 3.4538 -0.171875 7.71429V28.2857C-0.171875 32.5462 3.28193 36 7.54241 36H28.1138C32.3743 36 35.8281 32.5462 35.8281 28.2857V7.71429C35.8281 3.4538 32.3743 0 28.1138 0Z" fill="url(#paint0_radial_1_4152)"/>
<path d="M28.1138 0H7.54241C3.28193 0 -0.171875 3.4538 -0.171875 7.71429V28.2857C-0.171875 32.5462 3.28193 36 7.54241 36H28.1138C32.3743 36 35.8281 32.5462 35.8281 28.2857V7.71429C35.8281 3.4538 32.3743 0 28.1138 0Z" fill="url(#paint1_radial_1_4152)"/>
<path d="M28.1138 0H7.54241C3.28193 0 -0.171875 3.4538 -0.171875 7.71429V28.2857C-0.171875 32.5462 3.28193 36 7.54241 36H28.1138C32.3743 36 35.8281 32.5462 35.8281 28.2857V7.71429C35.8281 3.4538 32.3743 0 28.1138 0Z" fill="url(#paint2_radial_1_4152)"/>
<path d="M26.8283 10.9286C26.8283 11.9937 25.9648 12.8571 24.8998 12.8571C23.8347 12.8571 22.9712 11.9937 22.9712 10.9286C22.9712 9.86345 23.8347 9 24.8998 9C25.9648 9 26.8283 9.86345 26.8283 10.9286Z" fill="white"/>
<path fill-rule="evenodd" clip-rule="evenodd" d="M17.828 24.4284C21.3784 24.4284 24.2566 21.5502 24.2566 17.9999C24.2566 14.4495 21.3784 11.5713 17.828 11.5713C14.2776 11.5713 11.3994 14.4495 11.3994 17.9999C11.3994 21.5502 14.2776 24.4284 17.828 24.4284ZM17.828 21.857C19.9583 21.857 21.6851 20.1302 21.6851 17.9999C21.6851 15.8696 19.9583 14.1427 17.828 14.1427C15.6977 14.1427 13.9708 15.8696 13.9708 17.9999C13.9708 20.1302 15.6977 21.857 17.828 21.857Z" fill="white"/>
<path fill-rule="evenodd" clip-rule="evenodd" d="M4.97119 17.4864C4.97119 13.166 4.97119 11.0058 5.812 9.35563C6.55159 7.90409 7.73172 6.72396 9.18327 5.98436C10.8334 5.14355 12.9937 5.14355 17.314 5.14355H18.3426C22.663 5.14355 24.8233 5.14355 26.4733 5.98436C27.9249 6.72396 29.1051 7.90409 29.8446 9.35563C30.6855 11.0058 30.6855 13.166 30.6855 17.4864V18.515C30.6855 22.8354 30.6855 24.9956 29.8446 26.6457C29.1051 28.0973 27.9249 29.2774 26.4733 30.017C24.8233 30.8578 22.663 30.8578 18.3426 30.8578H17.314C12.9937 30.8578 10.8334 30.8578 9.18327 30.017C7.73172 29.2774 6.55159 28.0973 5.812 26.6457C4.97119 24.9956 4.97119 22.8354 4.97119 18.515V17.4864ZM17.314 7.71498H18.3426C20.5453 7.71498 22.0425 7.71699 23.1999 7.81154C24.3274 7.90365 24.9039 8.0706 25.306 8.27552C26.2737 8.76859 27.0604 9.55534 27.5535 10.523C27.7584 10.9252 27.9254 11.5017 28.0175 12.6291C28.112 13.7865 28.114 15.2837 28.114 17.4864V18.515C28.114 20.7177 28.112 22.2149 28.0175 23.3723C27.9254 24.4997 27.7584 25.0762 27.5535 25.4784C27.0604 26.446 26.2737 27.2328 25.306 27.7258C24.9039 27.9308 24.3274 28.0978 23.1999 28.1899C22.0425 28.2844 20.5453 28.2864 18.3426 28.2864H17.314C15.1114 28.2864 13.6141 28.2844 12.4567 28.1899C11.3293 28.0978 10.7528 27.9308 10.3506 27.7258C9.38298 27.2328 8.59622 26.446 8.10315 25.4784C7.89824 25.0762 7.73129 24.4997 7.63918 23.3723C7.54463 22.2149 7.54262 20.7177 7.54262 18.515V17.4864C7.54262 15.2837 7.54463 13.7865 7.63918 12.6291C7.73129 11.5017 7.89824 10.9252 8.10315 10.523C8.59622 9.55534 9.38298 8.76859 10.3506 8.27552C10.7528 8.0706 11.3293 7.90365 12.4567 7.81154C13.6141 7.71699 15.1114 7.71498 17.314 7.71498Z" fill="white"/>
</g>
<defs>
<radialGradient id="paint0_radial_1_4152" cx="0" cy="0" r="1" gradientUnits="userSpaceOnUse" gradientTransform="translate(12.6853 27) rotate(-55.3758) scale(32.8109)">
<stop stop-color="#B13589"/>
<stop offset="0.79309" stop-color="#C62F94"/>
<stop offset="1" stop-color="#8A3AC8"/>
</radialGradient>
<radialGradient id="paint1_radial_1_4152" cx="0" cy="0" r="1" gradientUnits="userSpaceOnUse" gradientTransform="translate(11.3996 37.2857) rotate(-65.1363) scale(29.0497)">
<stop stop-color="#E0E8B7"/>
<stop offset="0.444662" stop-color="#FB8A2E"/>
<stop offset="0.71474" stop-color="#E2425C"/>
<stop offset="1" stop-color="#E2425C" stop-opacity="0"/>
</radialGradient>
<radialGradient id="paint2_radial_1_4152" cx="0" cy="0" r="1" gradientUnits="userSpaceOnUse" gradientTransform="translate(-2.10045 1.28571) rotate(-8.1301) scale(50.0026 10.695)">
<stop offset="0.156701" stop-color="#406ADC"/>
<stop offset="0.467799" stop-color="#6A45BE"/>
<stop offset="1" stop-color="#6A45BE" stop-opacity="0"/>
</radialGradient>
<clipPath id="clip0_1_4152">
<rect width="36" height="36" fill="white"/>
</clipPath>
</defs>
</svg>
