<svg width="24" height="18" viewBox="0 0 24 18" fill="none" xmlns="http://www.w3.org/2000/svg">
<path fill-rule="evenodd" clip-rule="evenodd" d="M0.65083 2.426C0.333496 3.05016 0.333496 3.86683 0.333496 5.50016V12.5002C0.333496 14.1335 0.333496 14.9502 0.65083 15.5743C0.930707 16.123 1.37709 16.569 1.926 16.8483C2.55016 17.1668 3.36683 17.1668 5.00016 17.1668H19.0002C20.6335 17.1668 21.4502 17.1668 22.0743 16.8483C22.6228 16.5688 23.0688 16.1228 23.3483 15.5743C23.6668 14.9502 23.6668 14.1335 23.6668 12.5002V5.50016C23.6668 3.86683 23.6668 3.05016 23.3483 2.426C23.069 1.87709 22.623 1.43071 22.0743 1.15083C21.4502 0.833496 20.6335 0.833496 19.0002 0.833496H5.00016C3.36683 0.833496 2.55016 0.833496 1.926 1.15083C1.37691 1.43051 0.930509 1.87691 0.65083 2.426ZM3.42166 3.16683H20.5787C20.7039 3.16668 20.8259 3.20684 20.9266 3.28139C21.0272 3.35593 21.1012 3.4609 21.1376 3.58075C21.1739 3.70061 21.1708 3.82899 21.1285 3.94691C21.0863 4.06482 21.0072 4.16601 20.903 4.2355L12.6488 9.75616C12.4569 9.88457 12.2311 9.95312 12.0002 9.95312C11.7692 9.95312 11.5435 9.88457 11.3515 9.75616L3.09733 4.2355C2.99312 4.16601 2.91404 4.06482 2.87179 3.94691C2.82955 3.82899 2.82638 3.70061 2.86276 3.58075C2.89913 3.4609 2.97312 3.35593 3.07378 3.28139C3.17443 3.20684 3.29641 3.16668 3.42166 3.16683Z" fill="#FFFF05"/>
</svg>
