<svg width="19" height="13" viewBox="0 0 19 13" fill="none" xmlns="http://www.w3.org/2000/svg">
<path d="M0.64 12.78C0.533333 12.78 0.44 12.7467 0.36 12.68C0.28 12.6 0.24 12.4933 0.24 12.36V10.54C0.24 10.34 0.293333 10.1867 0.4 10.08C0.506667 9.97333 0.626667 9.88 0.76 9.8L5.38 6.72L0.76 3.64C0.626667 3.56 0.506667 3.46667 0.4 3.36C0.293333 3.24 0.24 3.08667 0.24 2.9V1.06C0.24 0.94 0.28 0.846667 0.36 0.78C0.44 0.699999 0.533333 0.659999 0.64 0.659999C0.706667 0.659999 0.773333 0.679999 0.84 0.72C0.906667 0.746666 0.966667 0.773333 1.02 0.8L8 5.56C8.2 5.69333 8.34667 5.82667 8.44 5.96C8.53333 6.08 8.58 6.24 8.58 6.44V6.98C8.58 7.18 8.53333 7.34667 8.44 7.48C8.34667 7.6 8.2 7.72667 8 7.86L1.02 12.62C0.966667 12.66 0.906667 12.7 0.84 12.74C0.773333 12.7667 0.706667 12.78 0.64 12.78ZM10.8353 12.78C10.7286 12.78 10.6353 12.7467 10.5553 12.68C10.4753 12.6 10.4353 12.4933 10.4353 12.36V10.54C10.4353 10.34 10.4886 10.1867 10.5953 10.08C10.702 9.97333 10.822 9.88 10.9553 9.8L15.5753 6.72L10.9553 3.64C10.822 3.56 10.702 3.46667 10.5953 3.36C10.4886 3.24 10.4353 3.08667 10.4353 2.9V1.06C10.4353 0.94 10.4753 0.846667 10.5553 0.78C10.6353 0.699999 10.7286 0.659999 10.8353 0.659999C10.902 0.659999 10.9686 0.679999 11.0353 0.72C11.102 0.746666 11.162 0.773333 11.2153 0.8L18.1953 5.56C18.3953 5.69333 18.542 5.82667 18.6353 5.96C18.7286 6.08 18.7753 6.24 18.7753 6.44V6.98C18.7753 7.18 18.7286 7.34667 18.6353 7.48C18.542 7.6 18.3953 7.72667 18.1953 7.86L11.2153 12.62C11.162 12.66 11.102 12.7 11.0353 12.74C10.9686 12.7667 10.902 12.78 10.8353 12.78Z" fill="#FFFF05"/>
</svg>
