<svg width="24" height="24" viewBox="0 0 24 24" fill="none" xmlns="http://www.w3.org/2000/svg">
<path fill-rule="evenodd" clip-rule="evenodd" d="M21.3193 23.2841L23.5398 21.0623C24.1534 20.4493 24.1534 19.4542 23.5398 18.8404L19.0988 15.5077C18.3475 14.9989 17.4918 14.8947 16.8783 15.5077L15.5189 16.868C14.1649 15.8597 12.6887 14.6492 11.327 13.2866C9.78729 11.7457 8.38766 10.0319 7.23794 8.49094L8.5509 7.17621C9.16445 6.56324 9.06077 5.70706 8.5509 4.95436L5.22012 0.510706C4.70561 -0.23428 3.61314 -0.103039 2.9996 0.510706L0.779833 2.73253C-0.447258 3.96002 -0.0542185 5.55577 0.779833 7.17621C0.779833 7.17621 3.53113 12.0808 7.72769 16.2797C11.6751 20.2293 16.8783 23.2841 16.8783 23.2841C18.6291 23.921 20.093 24.5116 21.3193 23.2841Z" fill="#FFFF05"/>
</svg>
