<svg width="29" height="28" viewBox="0 0 29 28" fill="none" xmlns="http://www.w3.org/2000/svg">
<g id="telegram_svgrepo.com" clip-path="url(#clip0_1_4458)">
<path id="Vector" d="M24.3 0H4.7C2.3804 0 0.5 1.8804 0.5 4.2V23.8C0.5 26.1196 2.3804 28 4.7 28H24.3C26.6196 28 28.5 26.1196 28.5 23.8V4.2C28.5 1.8804 26.6196 0 24.3 0Z" fill="#37AEE2"/>
<path id="Vector_2" d="M11.3828 22.0938C10.7812 22.0938 10.8359 21.875 10.6719 21.3281L8.92188 15.5859L22.3203 7.71094" fill="#C8DAEA"/>
<path id="Vector_3" d="M11.3828 22.0938C11.7656 22.0938 11.9844 21.875 12.2578 21.6562L14.7188 19.3047L11.6562 17.4453" fill="#A9C9DD"/>
<path id="Vector_4" d="M11.6565 17.4449L19.0393 22.859C19.8049 23.3512 20.4611 23.0778 20.6799 22.0934L23.6877 7.984C23.9611 6.78088 23.1955 6.234 22.3752 6.61682L4.82052 13.3981C3.67208 13.8356 3.67208 14.5465 4.60177 14.8199L9.14083 16.2418L19.5315 9.62463C20.0236 9.35119 20.4611 9.46057 20.133 9.84338" fill="#F6FBFE"/>
</g>
<defs>
<clipPath id="clip0_1_4458">
<rect width="28" height="28" fill="white" transform="translate(0.5)"/>
</clipPath>
</defs>
</svg>
