<svg width="29" height="33" viewBox="0 0 29 33" fill="none" xmlns="http://www.w3.org/2000/svg">
<path d="M14.464 0.395508C7.90536 0.395508 2.58813 1.68442 2.58813 3.27668C2.58813 4.61464 6.34824 5.74257 11.4387 6.06781V9.40817H4.43388C2.96746 9.40817 1.91662 10.5938 1.7958 12.0552L0.310203 30.0266C0.218677 31.1337 0.982568 32.0254 1.82282 32.0254H27.1051C27.9453 32.0254 28.7087 31.1337 28.6177 30.0266L27.1411 12.0552C27.021 10.5938 25.9605 9.40817 24.494 9.40817H17.4892V6.06781C22.5797 5.74257 26.3398 4.61464 26.3398 3.27668C26.3398 1.68442 21.0226 0.395508 14.464 0.395508ZM5.9555 11.5781H11.4387V12.4424H5.9555C5.65435 12.4424 5.46071 12.6636 5.42428 13.0186L4.11875 25.7408C4.09312 25.9903 4.34882 26.227 4.64997 26.227H23.9358C24.237 26.227 24.4926 25.9903 24.467 25.7408L23.1615 13.0186C23.125 12.6636 22.9314 12.4424 22.6303 12.4424H17.4892V11.5781H22.6303C23.3975 11.5781 23.9532 12.2209 24.0258 12.9286L25.3314 25.6508C25.4148 26.464 24.703 27.0914 23.9358 27.0914H4.64997C3.88278 27.0914 3.17095 26.464 3.2544 25.6508L4.55993 12.9286C4.63255 12.2209 5.18831 11.5781 5.9555 11.5781ZM11.2316 13.5589H11.4387V14.9094C11.4387 15.1785 11.657 15.3907 11.9249 15.3956L12.213 17.9166C12.2675 18.3987 12.6708 18.79 13.2395 18.79H15.6885C16.2571 18.79 16.6605 18.3987 16.7149 17.9166L17.003 15.3956C17.2709 15.3907 17.4892 15.1785 17.4892 14.9094V13.5589H17.6963L19.1549 20.9599H21.4958L14.464 25.1916L7.4321 20.9599H9.78205L11.2316 13.5589Z" fill="#01B851"/>
</svg>
