<svg width="642" height="340" viewBox="0 0 642 340" fill="none" xmlns="http://www.w3.org/2000/svg">
<g clip-path="url(#clip0_1_4469)">
<path d="M238.153 -0.0629608C213.788 1.19947 188.792 4.73428 173.643 9.02655C145.364 17.1061 116.959 41.0923 96.508 74.2943L90.1959 84.6462L84.8936 83.0051C81.8638 82.1214 76.3091 80.9852 72.5218 80.4802L65.4522 79.5965L58.2563 64.5736L51.0605 49.5506H43.9908C40.0773 49.5506 28.7154 49.1719 18.8684 48.6669L0.941895 47.9095L5.61289 60.4075L10.4101 72.9056L29.8516 73.2843C47.6519 73.5368 49.5455 73.7893 52.1966 76.3142C55.6052 79.4703 54.974 81.1114 50.303 81.1114C41.2135 81.1114 25.6856 92.2208 21.2671 101.815C7.75903 130.346 15.9648 213.667 35.9113 252.171C41.0872 262.144 48.5356 269.971 57.3726 274.895C65.7047 279.566 82.2425 284.111 93.8569 284.868C103.704 285.625 103.704 285.625 98.0229 283.858C76.4353 277.42 55.2265 263.785 47.7781 251.666C29.3466 221.746 18.9947 145.117 28.5892 111.031C30.6091 104.34 37.4262 97.1443 45.3795 93.6095C53.7116 89.9485 69.7445 89.5697 80.9801 92.7258C85.9036 94.1145 101.432 95.8819 124.534 97.523C144.354 98.9117 167.33 100.679 175.663 101.31C183.995 102.068 209.874 103.961 233.103 105.729C256.332 107.496 279.056 109.264 283.6 109.516C296.351 110.526 290.923 109.264 273.501 107.118C264.79 106.108 237.522 102.573 212.904 99.4167C188.287 96.2606 157.357 92.2208 144.102 90.4534C130.972 88.8123 116.581 87.0449 112.162 86.5399C107.87 86.1612 103.956 85.2775 103.578 84.7725C102.189 82.5001 119.358 59.7763 131.477 47.657C154.832 24.4282 172.506 16.9799 215.177 12.1826C240.173 9.40528 394.947 9.40528 420.322 12.3089C464.507 17.1061 485.463 26.7006 509.45 52.9592C518.792 63.0586 532.678 83.1313 531.668 84.8987C531.29 85.6562 529.522 86.1612 527.755 86.1612C525.988 86.1612 505.157 88.686 481.424 91.7159C457.69 94.8719 417.797 99.9217 392.801 103.204C345.712 109.137 337.254 110.526 352.403 109.516C363.386 108.759 437.87 103.078 459.079 101.31C467.789 100.679 491.018 98.9117 510.838 97.523C533.688 95.8819 549.343 94.1145 553.761 92.852C564.618 89.5697 581.787 89.9485 589.993 93.6095C597.946 97.1443 604.89 104.34 606.783 111.031C615.494 141.961 607.162 213.162 591.003 245.228C583.176 260.756 566.638 273.506 543.914 281.459L531.668 285.878L541.263 284.994C560.831 283.479 579.388 276.283 589.362 266.184C599.966 255.58 608.803 233.992 614.863 203.315C623.069 162.412 622.564 118.858 613.727 101.31C609.939 93.862 602.365 87.1711 593.401 83.51L586.584 80.6065L589.993 77.0716L593.401 73.5368H612.969H632.663L637.208 61.165C639.859 54.4741 641.626 48.6669 641.5 48.5407C641.248 48.2882 630.012 48.4144 616.504 48.9194L592.013 49.9294L584.691 64.6998L577.368 79.4703L567.143 80.2277C561.462 80.6065 554.266 81.7426 550.984 82.7526L545.176 84.6462L538.864 74.2943C526.366 54.0954 509.197 35.2851 493.164 24.302C473.849 11.1727 456.049 5.61798 419.312 1.45196C408.076 0.189526 258.604 -1.07291 238.153 -0.0629608Z" fill="black"/>
<path d="M52.7017 119.868C52.0705 121.13 50.4293 126.053 48.9144 130.851C44.4959 145.242 45.7583 156.352 52.7017 162.79C58.7614 168.345 80.9802 176.677 108.754 183.873C128.574 189.049 154.075 194.603 154.706 193.972C155.842 192.962 150.793 184.883 143.976 176.551C129.836 159.382 108.754 145.874 81.8639 136.532L75.173 134.259L78.834 138.93C80.9802 141.455 86.0299 147.893 90.3222 153.069C94.6144 158.245 98.023 162.916 98.023 163.421C98.023 165.189 89.8172 162.916 80.8539 158.624C62.9274 150.04 52.8279 136.91 54.0904 123.781C54.7216 117.216 54.5953 116.585 52.7017 119.868Z" fill="black"/>
<path d="M581.282 123.781C581.913 131.482 578.126 140.824 571.688 147.136C565.628 152.944 553.382 160.392 546.818 162.033C544.04 162.791 540.758 163.548 539.622 163.927C535.582 165.063 537.223 162.412 548.585 148.525C554.771 140.951 559.694 134.638 559.568 134.512C558.811 133.755 540.253 141.455 528.639 147.389C513.237 155.216 501.118 164.684 491.523 176.425C484.58 184.757 479.53 192.963 480.54 193.973C481.424 194.73 521.316 185.514 539.369 180.338C567.774 172.133 580.398 166.452 585.827 159.003C589.614 153.827 589.362 137.794 585.322 127.19C581.534 117.217 580.525 116.333 581.282 123.781Z" fill="black"/>
<path d="M293.448 155.089C291.301 157.109 292.69 158.119 297.487 158.119H302.411L298.75 165.946C294.836 174.026 294.079 177.561 296.099 176.803C297.235 176.425 307.713 156.604 307.208 155.973C306.324 155.089 294.205 154.332 293.448 155.089Z" fill="black"/>
<path d="M311.122 155.09C308.976 157.11 310.364 158.12 315.035 158.12H319.832L316.298 165.695C314.278 169.861 312.637 174.153 312.637 175.289C312.637 179.076 315.54 176.299 317.939 170.113C319.201 166.831 321.474 162.412 322.989 160.392C324.377 158.372 325.261 156.479 325.008 156.226C323.998 155.216 311.879 154.206 311.122 155.09Z" fill="black"/>
<path d="M327.533 154.964C325.766 156.857 327.912 158.12 332.709 158.12H337.506L333.971 165.315C331.951 169.355 330.31 173.648 330.31 174.784C330.31 178.823 332.456 177.182 334.603 171.375C335.865 168.345 338.264 163.674 339.905 161.149C341.672 158.625 342.808 156.352 342.556 156.1C341.672 155.09 328.29 154.206 327.533 154.964Z" fill="black"/>
<path d="M180.965 170.996C179.955 172.637 177.43 177.182 175.284 181.222L171.497 188.418L174.526 200.79C176.294 207.607 180.46 218.842 184.121 226.291C192.453 243.586 203.941 255.579 216.944 260.755C234.492 267.698 260.624 269.592 289.155 266.057C302.663 264.416 309.354 262.901 303.042 262.901C301.78 262.901 284.737 261.386 265.295 259.619L229.947 256.337L224.014 250.277C220.605 246.868 217.954 243.712 217.954 243.081C217.954 242.576 234.618 242.197 254.817 242.324L291.806 242.45L253.428 237.905L214.924 233.234L208.991 223.766C205.582 218.59 203.436 214.045 204.194 213.919C205.835 213.288 292.816 217.58 294.079 218.337C294.584 218.59 294.962 218.211 294.962 217.58C294.962 216.822 293.574 216.191 291.806 216.191C287.262 216.191 205.204 202.431 202.047 201.042C199.775 200.158 193.084 186.398 194.347 185.135C194.599 184.883 212.021 186.398 233.23 188.418C289.282 193.846 297.614 194.73 302.537 195.614C304.936 195.992 306.703 195.992 306.324 195.614C305.946 195.235 297.614 193.089 288.019 191.069C269.335 187.029 220.1 176.298 197.755 171.249C181.47 167.588 182.985 167.714 180.965 170.996Z" fill="black"/>
<path d="M396.588 180.339C367.426 186.777 340.536 192.711 336.875 193.594C327.281 195.488 329.427 196.245 340.536 194.73C345.712 194.099 356.19 192.963 363.765 192.206C371.466 191.574 391.791 189.554 409.086 187.913C426.508 186.146 440.9 184.883 441.152 185.262C441.657 185.641 436.607 200.79 435.85 201.169C435.85 201.169 414.389 204.83 388.382 209.248C362.376 213.667 343.061 217.328 345.46 217.328C347.858 217.454 368.184 216.57 390.655 215.434C413 214.298 431.684 213.667 432.063 214.046C433.325 215.308 421.837 232.603 419.312 233.235C417.923 233.487 406.562 235.002 394.063 236.391C339.274 242.829 340.158 242.324 381.818 242.577L418.807 242.703L412.874 249.52C407.066 256.085 406.688 256.337 398.608 256.968C350.131 261.387 331.447 263.533 334.35 264.29C336.118 264.669 344.45 265.805 352.908 266.689C381.187 269.719 407.698 266.563 423.983 258.357C438.249 251.035 452.135 231.467 459.457 207.986C465.012 190.186 465.012 189.176 458.952 177.94C455.544 171.88 452.893 168.219 451.63 168.346C450.494 168.472 425.75 173.774 396.588 180.339Z" fill="black"/>
<path d="M58.8876 190.816C53.4591 191.574 53.8378 191.7 67.5983 194.604C97.3917 200.916 120.242 210.889 132.109 223.008C135.265 226.164 141.198 234.875 145.238 242.324C165.311 278.808 170.739 285.625 185.636 292.695C196.366 297.744 204.698 299.512 218.459 299.512C235.249 299.512 267.063 294.083 296.225 286.382C309.354 282.848 310.743 282.848 277.162 286.256C248.252 289.034 218.711 289.917 207.476 288.15C183.868 284.615 176.546 277.672 155.337 238.41C146.374 221.746 138.8 213.161 126.301 205.334C106.608 193.089 81.9901 187.786 58.8876 190.816Z" fill="black"/>
<path d="M547.07 191.069C543.03 191.7 534.951 193.847 529.017 195.866C505.41 203.946 492.028 215.813 479.278 239.547C459.331 277.167 450.494 285.12 426.129 288.276C411.359 290.17 366.29 287.898 333.467 283.605C311.879 280.702 353.918 290.675 380.682 294.715C392.296 296.482 404.668 297.366 418.681 297.492C438.88 297.618 439.763 297.492 446.833 294.21C463.876 286.257 468.673 280.702 485.59 250.277C499.098 226.165 500.486 224.145 509.576 217.328C522.074 207.86 542.02 200.032 568.405 194.478L582.166 191.574L575.854 190.69C567.395 189.681 556.033 189.807 547.07 191.069Z" fill="black"/>
<path d="M61.4126 205.208C61.4126 206.344 68.4822 222.756 71.7645 229.447C81.7378 249.015 92.5947 260.503 105.724 265.174C115.95 268.709 132.866 271.107 139.178 269.845L144.102 268.961L134.507 266.562C123.272 263.911 112.92 259.493 105.093 254.191C98.7806 249.772 90.0698 237.527 87.6712 229.699L86.03 224.397L85.3988 230.457L84.7676 236.517L73.6582 220.61C63.9375 206.723 61.4126 203.567 61.4126 205.208Z" fill="black"/>
<path d="M568.279 220.989L556.917 237.022L556.286 231.341L555.528 225.66L554.645 229.7C553.256 235.255 545.05 247.626 539.748 252.045C533.815 257.095 519.549 263.659 508.313 266.563L498.845 268.961L503.895 269.971C510.081 271.108 528.765 268.078 538.991 264.164C553.256 258.736 566.133 241.945 576.99 214.551C578.883 209.753 580.272 205.714 580.02 205.461C579.767 205.209 574.465 212.278 568.279 220.989Z" fill="black"/>
<path d="M34.27 328.043C35.0275 328.296 51.1866 331.073 70.2493 334.229L104.966 340.036L182.606 338.016C225.276 337.006 281.833 335.491 308.218 334.86C334.603 334.229 403.91 332.462 462.235 331.073C520.559 329.684 570.804 328.296 573.96 328.169C577.116 327.917 456.68 327.664 306.324 327.664C155.969 327.538 33.6388 327.664 34.27 328.043Z" fill="black"/>
</g>
<defs>
<clipPath id="clip0_1_4469">
<rect width="641" height="339.91" fill="white" transform="translate(0.5)"/>
</clipPath>
</defs>
</svg>
