<svg width="30" height="34" viewBox="0 0 30 34" fill="none" xmlns="http://www.w3.org/2000/svg">
<path d="M5 33.6663H25C26.3261 33.6663 27.5979 33.1396 28.5355 32.2019C29.4732 31.2642 30 29.9924 30 28.6663V8.66634C30 7.78229 29.6488 6.93444 29.0237 6.30932C28.3986 5.6842 27.5507 5.33301 26.6667 5.33301H23.3333V1.99967C23.3333 1.55765 23.1577 1.13372 22.8452 0.821163C22.5326 0.508602 22.1087 0.333008 21.6667 0.333008C21.2246 0.333008 20.8007 0.508602 20.4882 0.821163C20.1756 1.13372 20 1.55765 20 1.99967V5.33301H10V1.99967C10 1.55765 9.8244 1.13372 9.51184 0.821163C9.19928 0.508602 8.77536 0.333008 8.33333 0.333008C7.89131 0.333008 7.46738 0.508602 7.15482 0.821163C6.84226 1.13372 6.66667 1.55765 6.66667 1.99967V5.33301H3.33333C2.44928 5.33301 1.60143 5.6842 0.976311 6.30932C0.351189 6.93444 0 7.78229 0 8.66634V28.6663C0 29.9924 0.526784 31.2642 1.46447 32.2019C2.40215 33.1396 3.67392 33.6663 5 33.6663ZM3.33333 17.833C3.33333 17.612 3.42113 17.4 3.57741 17.2438C3.73369 17.0875 3.94565 16.9997 4.16667 16.9997H25.8333C26.0543 16.9997 26.2663 17.0875 26.4226 17.2438C26.5789 17.4 26.6667 17.612 26.6667 17.833V28.6663C26.6667 29.1084 26.4911 29.5323 26.1785 29.8449C25.866 30.1574 25.442 30.333 25 30.333H5C4.55797 30.333 4.13405 30.1574 3.82149 29.8449C3.50893 29.5323 3.33333 29.1084 3.33333 28.6663V17.833Z" fill="#01B851"/>
</svg>
