<svg width="16" height="16" viewBox="0 0 16 16" fill="none" xmlns="http://www.w3.org/2000/svg">
<path fill-rule="evenodd" clip-rule="evenodd" d="M14.8513 2.45129C14.9368 2.36587 15.0047 2.26446 15.051 2.15282C15.0973 2.04118 15.1212 1.92152 15.1213 1.80065C15.1213 1.67979 15.0976 1.56009 15.0514 1.4484C15.0052 1.33671 14.9375 1.2352 14.8521 1.14969C14.7667 1.06417 14.6653 0.996313 14.5536 0.949992C14.442 0.90367 14.3223 0.87979 14.2015 0.879716C14.0806 0.879642 13.9609 0.903374 13.8492 0.949559C13.7375 0.995743 13.636 1.06347 13.5505 1.14889L8.00009 6.69929L2.45129 1.14889C2.27858 0.976177 2.04433 0.87915 1.80009 0.87915C1.55584 0.87915 1.3216 0.976177 1.14889 1.14889C0.976177 1.3216 0.87915 1.55584 0.87915 1.80009C0.87915 2.04433 0.976177 2.27858 1.14889 2.45129L6.69929 8.00009L1.14889 13.5489C1.06337 13.6344 0.995534 13.7359 0.949252 13.8477C0.902971 13.9594 0.87915 14.0791 0.87915 14.2001C0.87915 14.321 0.902971 14.4408 0.949252 14.5525C0.995534 14.6642 1.06337 14.7658 1.14889 14.8513C1.3216 15.024 1.55584 15.121 1.80009 15.121C1.92103 15.121 2.04078 15.0972 2.15251 15.0509C2.26425 15.0046 2.36577 14.9368 2.45129 14.8513L8.00009 9.30089L13.5505 14.8513C13.7232 15.0238 13.9574 15.1206 14.2015 15.1205C14.4456 15.1203 14.6796 15.0232 14.8521 14.8505C15.0246 14.6778 15.1214 14.4436 15.1213 14.1995C15.1211 13.9554 15.024 13.7214 14.8513 13.5489L9.30089 8.00009L14.8513 2.45129Z" fill="white"/>
</svg>
