<svg width="21" height="21" viewBox="0 0 21 21" fill="none" xmlns="http://www.w3.org/2000/svg">
<path d="M0 1.86667C0 1.21327 -5.96046e-08 0.886573 0.127155 0.637012C0.239015 0.417492 0.417492 0.239015 0.637012 0.127155C0.886573 -5.96046e-08 1.21327 0 1.86667 0H19.1333C19.7868 0 20.1134 -5.96046e-08 20.363 0.127155C20.5826 0.239015 20.761 0.417492 20.8728 0.637012C21 0.886573 21 1.21327 21 1.86667V3.89347C21 4.17882 21 4.3215 20.9678 4.45577C20.9392 4.57481 20.8921 4.68861 20.828 4.79299C20.7559 4.91073 20.655 5.01163 20.4533 5.2134L13.38 12.2866C13.1783 12.4883 13.0774 12.5893 13.0053 12.707C12.9412 12.8114 12.8941 12.9251 12.8655 13.0443C12.8333 13.1785 12.8333 13.3212 12.8333 13.6065V16.3333L8.16667 21V13.6065C8.16667 13.3212 8.16667 13.1785 8.13443 13.0443C8.10585 12.9251 8.05871 12.8114 7.99475 12.707C7.9226 12.5893 7.82171 12.4883 7.61993 12.2866L0.546735 5.2134C0.34496 5.01163 0.244067 4.91073 0.17192 4.79299C0.107952 4.68861 0.0608184 4.57481 0.0322351 4.45577C1.08033e-07 4.3215 0 4.17882 0 3.89347V1.86667Z" fill="#FFFF05"/>
</svg>
