<svg width="24" height="18" viewBox="0 0 24 18" fill="none" xmlns="http://www.w3.org/2000/svg">
<path fill-rule="evenodd" clip-rule="evenodd" d="M0.65083 2.42551C0.333496 3.04967 0.333496 3.86634 0.333496 5.49967V12.4997C0.333496 14.133 0.333496 14.9497 0.65083 15.5738C0.930707 16.1225 1.37709 16.5685 1.926 16.8478C2.55016 17.1663 3.36683 17.1663 5.00016 17.1663H19.0002C20.6335 17.1663 21.4502 17.1663 22.0743 16.8478C22.6228 16.5683 23.0688 16.1223 23.3483 15.5738C23.6668 14.9497 23.6668 14.133 23.6668 12.4997V5.49967C23.6668 3.86634 23.6668 3.04967 23.3483 2.42551C23.069 1.8766 22.623 1.43022 22.0743 1.15034C21.4502 0.833008 20.6335 0.833008 19.0002 0.833008H5.00016C3.36683 0.833008 2.55016 0.833008 1.926 1.15034C1.37691 1.43002 0.930509 1.87642 0.65083 2.42551ZM3.42166 3.16634H20.5787C20.7039 3.16619 20.8259 3.20636 20.9266 3.2809C21.0272 3.35545 21.1012 3.46041 21.1376 3.58027C21.1739 3.70012 21.1708 3.8285 21.1285 3.94642C21.0863 4.06433 21.0072 4.16552 20.903 4.23501L12.6488 9.75567C12.4569 9.88408 12.2311 9.95263 12.0002 9.95263C11.7692 9.95263 11.5435 9.88408 11.3515 9.75567L3.09733 4.23501C2.99312 4.16552 2.91404 4.06433 2.87179 3.94642C2.82955 3.8285 2.82638 3.70012 2.86276 3.58027C2.89913 3.46041 2.97312 3.35545 3.07378 3.2809C3.17443 3.20636 3.29641 3.16619 3.42166 3.16634Z" fill="#FFFF05"/>
</svg>
