<svg width="28" height="36" viewBox="0 0 28 36" fill="none" xmlns="http://www.w3.org/2000/svg">
<path d="M7.08366 7.16667H25.417C25.859 7.16667 26.2829 7.34226 26.5955 7.65482C26.9081 7.96738 27.0837 8.39131 27.0837 8.83333V33.8333C27.0837 34.2754 26.9081 34.6993 26.5955 35.0118C26.2829 35.3244 25.859 35.5 25.417 35.5H2.08366C1.64163 35.5 1.21771 35.3244 0.905148 35.0118C0.592587 34.6993 0.416992 34.2754 0.416992 33.8333V17.1667L7.08366 7.16667ZM15.417 0.5H23.7503C24.1924 0.5 24.6163 0.675595 24.9288 0.988155C25.2414 1.30072 25.417 1.72464 25.417 2.16667V5.5H13.7503V2.16667C13.7503 1.72464 13.9259 1.30072 14.2385 0.988155C14.551 0.675595 14.975 0.5 15.417 0.5ZM3.75033 18.8333V30.5H7.08366V18.8333H3.75033Z" fill="#01B851"/>
</svg>
