<svg width="36" height="36" viewBox="0 0 36 36" fill="none" xmlns="http://www.w3.org/2000/svg">
<g clip-path="url(#clip0_1_4159)">
<path d="M30.6 0H5.4C2.41766 0 0 2.41766 0 5.4V30.6C0 33.5823 2.41766 36 5.4 36H30.6C33.5823 36 36 33.5823 36 30.6V5.4C36 2.41766 33.5823 0 30.6 0Z" fill="#37AEE2"/>
<path d="M13.9922 28.4062C13.2188 28.4062 13.2891 28.125 13.0781 27.4219L10.8281 20.0391L28.0547 9.91406" fill="#C8DAEA"/>
<path d="M13.9922 28.4062C14.4844 28.4062 14.7656 28.125 15.1172 27.8438L18.2812 24.8203L14.3438 22.4297" fill="#A9C9DD"/>
<path d="M13.7914 21.7919L23.2835 28.7529C24.2679 29.3857 25.1117 29.0341 25.3929 27.7685L29.2601 9.62787C29.6117 8.081 28.6273 7.37787 27.5726 7.87006L5.00229 16.5888C3.52573 17.1513 3.52573 18.0654 4.72104 18.4169L10.557 20.2451L23.9164 11.7372C24.5492 11.3857 25.1117 11.5263 24.6898 12.0185" fill="#F6FBFE"/>
</g>
<defs>
<clipPath id="clip0_1_4159">
<rect width="36" height="36" fill="white"/>
</clipPath>
</defs>
</svg>
