<svg width="40" height="40" viewBox="0 0 40 40" fill="none" xmlns="http://www.w3.org/2000/svg">
<rect width="40" height="40" rx="5" fill="#010101"/>
<path fill-rule="evenodd" clip-rule="evenodd" d="M17.9105 16.4012V15.3425C17.543 15.2905 17.1725 15.2635 16.8014 15.2617C12.2633 15.2617 8.57129 18.9544 8.57129 23.4925C8.57129 26.2763 9.96256 28.7406 12.0849 30.2307C10.6638 28.7109 9.87376 26.7077 9.87491 24.627C9.87491 20.1536 13.4619 16.5057 17.9105 16.4012Z" fill="#00F2EA"/>
<path fill-rule="evenodd" clip-rule="evenodd" d="M18.1044 28.3858C20.1291 28.3858 21.7809 26.7751 21.8561 24.7677L21.8629 6.8484H25.1366C25.0667 6.47425 25.0313 6.09448 25.0309 5.71387H20.5599L20.5525 23.6338C20.4779 25.6406 18.8255 27.2506 16.8014 27.2506C16.1937 27.2509 15.5951 27.1028 15.0576 26.8192C15.4047 27.3034 15.862 27.698 16.3918 27.9704C16.9216 28.2429 17.5086 28.3852 18.1044 28.3858ZM31.2519 12.931V11.935C30.0488 11.9362 28.8715 11.5862 27.8645 10.928C28.7474 11.9446 29.9362 12.6474 31.2525 12.931" fill="#00F2EA"/>
<path fill-rule="evenodd" clip-rule="evenodd" d="M27.8645 10.9277C26.8776 9.79843 26.334 8.34938 26.3346 6.84961H25.1367C25.2918 7.67857 25.6135 8.46741 26.0824 9.16839C26.5513 9.86937 27.1575 10.4679 27.8645 10.9277ZM16.8015 19.7341C15.805 19.7352 14.8497 20.1316 14.1451 20.8362C13.4405 21.5408 13.0442 22.4961 13.043 23.4926C13.0436 24.1781 13.2316 24.8504 13.5866 25.4368C13.9416 26.0231 14.4501 26.5014 15.0571 26.8198C14.5949 26.1824 14.3461 25.4151 14.346 24.6278C14.347 23.6312 14.7432 22.6757 15.4479 21.971C16.1525 21.2662 17.108 20.8698 18.1046 20.8686C18.4919 20.8686 18.863 20.9326 19.2136 21.0427V16.4778C18.8462 16.4258 18.4756 16.3988 18.1046 16.397C18.0392 16.397 17.9752 16.4007 17.9106 16.402V19.9082C17.5519 19.794 17.1779 19.7353 16.8015 19.7341Z" fill="#FF004F"/>
<path fill-rule="evenodd" clip-rule="evenodd" d="M31.252 12.9303V16.4054C28.9332 16.4054 26.7854 15.6638 25.031 14.4049V23.4917C25.031 28.0298 21.3396 31.7219 16.8015 31.7219C15.0478 31.7219 13.4215 31.1686 12.085 30.2299C12.8534 31.0586 13.7847 31.7196 14.8205 32.1716C15.8564 32.6235 16.9744 32.8567 18.1045 32.8564C22.6426 32.8564 26.3347 29.1644 26.3347 24.6269V15.54C28.147 16.8432 30.3234 17.5431 32.5556 17.5405V13.0683C32.108 13.0683 31.6728 13.0198 31.252 12.9297" fill="#FF004F"/>
<path fill-rule="evenodd" clip-rule="evenodd" d="M25.0311 23.4917V14.4049C26.8433 15.7082 29.0198 16.4081 31.252 16.4054V12.9303C29.9359 12.6465 28.7473 11.9435 27.8646 10.9267C27.1577 10.4669 26.5513 9.86839 26.0825 9.16741C25.6136 8.46644 25.2919 7.67759 25.1367 6.84863H21.8631L21.8562 24.768C21.781 26.7747 20.1293 28.3854 18.1045 28.3854C17.5088 28.3848 16.9218 28.2424 16.392 27.97C15.8622 27.6976 15.4049 27.303 15.0578 26.8189C14.4506 26.5005 13.942 26.0224 13.5869 25.436C13.2318 24.8496 13.0437 24.1773 13.043 23.4917C13.0441 22.4952 13.4405 21.5399 14.1451 20.8353C14.8497 20.1307 15.8051 19.7343 16.8016 19.7331C17.1882 19.7331 17.5594 19.7966 17.9106 19.9072V16.4011C13.462 16.5055 9.875 20.1534 9.875 24.6269C9.875 26.7902 10.7155 28.7597 12.085 30.2305C13.4656 31.2024 15.1132 31.7233 16.8016 31.7219C21.3397 31.7219 25.0311 28.0298 25.0311 23.4917Z" fill="white"/>
</svg>
