<svg width="26" height="26" viewBox="0 0 26 26" fill="none" xmlns="http://www.w3.org/2000/svg">
<path d="M12.9998 0.167126C10.4616 0.167126 7.98046 0.919788 5.87002 2.32993C3.75959 3.74008 2.11471 5.74437 1.14339 8.08936C0.172064 10.4343 -0.0820784 13.0147 0.413099 15.5041C0.908276 17.9935 2.13053 20.2802 3.92531 22.075C5.72008 23.8698 8.00676 25.092 10.4962 25.5872C12.9856 26.0824 15.566 25.8282 17.9109 24.8569C20.2559 23.8856 22.2602 22.2407 23.6704 20.1303C25.0805 18.0198 25.8332 15.5387 25.8332 13.0005C25.8409 11.313 25.5142 9.64073 24.872 8.08023C24.2298 6.51973 23.2848 5.10193 22.0916 3.9087C20.8984 2.71548 19.4806 1.77048 17.9201 1.12827C16.3596 0.486075 14.6873 0.159403 12.9998 0.167126ZM19.8248 17.0838C19.7199 17.2548 19.5747 17.3974 19.4018 17.4991C19.2288 17.6008 19.0336 17.6585 18.8332 17.6671C18.6262 17.6644 18.4241 17.6038 18.2498 17.4921L11.8332 13.6421V7.16713C11.8332 6.85771 11.9561 6.56096 12.1749 6.34217C12.3937 6.12338 12.6904 6.00046 12.9998 6.00046C13.3093 6.00046 13.606 6.12338 13.8248 6.34217C14.0436 6.56096 14.1665 6.85771 14.1665 7.16713V12.3588L19.4165 15.5088C19.5511 15.5811 19.6693 15.6804 19.7637 15.8006C19.8581 15.9208 19.9266 16.0591 19.9649 16.207C20.0033 16.3549 20.0106 16.5092 19.9865 16.6601C19.9624 16.8109 19.9074 16.9552 19.8248 17.0838Z" fill="#FFFF05"/>
</svg>
