<svg width="29" height="32" viewBox="0 0 29 32" fill="none" xmlns="http://www.w3.org/2000/svg">
<path d="M14.464 0.145508C7.90536 0.145508 2.58813 1.43442 2.58813 3.02668C2.58813 4.36464 6.34824 5.49257 11.4387 5.81781V9.15817H4.43388C2.96746 9.15817 1.91662 10.3438 1.7958 11.8052L0.310203 29.7766C0.218677 30.8837 0.982568 31.7754 1.82282 31.7754H27.1051C27.9453 31.7754 28.7087 30.8837 28.6177 29.7766L27.1411 11.8052C27.021 10.3438 25.9605 9.15817 24.494 9.15817H17.4892V5.81781C22.5797 5.49257 26.3398 4.36464 26.3398 3.02668C26.3398 1.43442 21.0226 0.145508 14.464 0.145508ZM5.9555 11.3281H11.4387V12.1924H5.9555C5.65435 12.1924 5.46071 12.4136 5.42428 12.7686L4.11875 25.4908C4.09312 25.7403 4.34882 25.977 4.64997 25.977H23.9358C24.237 25.977 24.4926 25.7403 24.467 25.4908L23.1615 12.7686C23.125 12.4136 22.9314 12.1924 22.6303 12.1924H17.4892V11.3281H22.6303C23.3975 11.3281 23.9532 11.9709 24.0258 12.6786L25.3314 25.4008C25.4148 26.214 24.703 26.8414 23.9358 26.8414H4.64997C3.88278 26.8414 3.17095 26.214 3.2544 25.4008L4.55993 12.6786C4.63255 11.9709 5.18831 11.3281 5.9555 11.3281ZM11.2316 13.3089H11.4387V14.6594C11.4387 14.9285 11.657 15.1407 11.9249 15.1456L12.213 17.6666C12.2675 18.1487 12.6708 18.54 13.2395 18.54H15.6885C16.2571 18.54 16.6605 18.1487 16.7149 17.6666L17.003 15.1456C17.2709 15.1407 17.4892 14.9285 17.4892 14.6594V13.3089H17.6963L19.1549 20.7099H21.4958L14.464 24.9416L7.4321 20.7099H9.78205L11.2316 13.3089Z" fill="#01B851"/>
</svg>
