<svg xmlns="http://www.w3.org/2000/svg" width="81" height="81" viewBox="0 0 81 81" fill="none">
  <path d="M78.5923 29.9622C79.108 31.6904 79.4406 33.4577 79.6727 35.2417C79.9995 37.7466 80.0951 40.2608 79.9521 42.7874C79.6685 47.7907 78.5225 52.5845 76.4117 57.1263C72.3897 65.784 66.0848 72.2427 57.5327 76.4851C53.5823 78.4445 49.404 79.687 45.0219 80.1977C34.4272 81.4327 24.7632 78.9776 16.1962 72.6178C7.99754 66.5316 2.89773 58.3937 0.806071 48.3962C0.0617249 44.8383 -0.137876 41.233 0.129922 37.6078C0.389403 34.0856 1.08634 30.65 2.26565 27.3167C2.28811 27.2534 2.32554 27.1944 2.35548 27.1337C2.71559 27.2227 3.01749 27.0297 3.33934 26.9316C3.72274 26.8152 3.83169 26.8692 3.95395 27.2119C3.84833 27.9304 3.52564 28.5833 3.32021 29.2711C2.63159 31.574 2.14257 33.9143 1.87726 36.3029C1.69097 37.9837 1.59865 39.6678 1.63857 41.3586C1.71176 44.4582 2.13924 47.5096 2.93598 50.507C3.6612 53.2357 4.68083 55.8521 5.99238 58.3513C7.36879 60.9744 9.02798 63.4045 10.9616 65.6526C12.8861 67.8898 15.0401 69.8741 17.4195 71.6123C20.426 73.8079 23.682 75.5353 27.1942 76.7812C29.8697 77.7301 32.615 78.373 35.4294 78.7198C37.4379 78.9676 39.4588 79.0757 41.4798 78.9826C44.9662 78.8212 48.3852 78.2582 51.7185 77.1887C56.7485 75.5752 61.2503 73.0428 65.2432 69.5847C68.7046 66.5874 71.5239 63.0777 73.742 59.0765C76.1505 54.7319 77.6118 50.0812 78.2256 45.1602C78.4742 43.1658 78.5707 41.1582 78.4834 39.1505C78.3636 36.3919 77.9794 33.6656 77.2941 30.986C77.2433 30.7889 77.1485 30.5901 77.24 30.378C77.6484 30.1036 78.0684 29.8624 78.5923 29.9622Z" fill="#FEFA00"/>
  <path d="M3.86231 27.2414C3.86564 26.9528 3.69099 26.9296 3.47808 26.9986C3.23107 27.0793 2.99405 27.189 2.74621 27.2656C2.59817 27.3113 2.41354 27.3886 2.35449 27.1342C2.76201 25.7794 3.32672 24.4853 3.95629 23.2253C9.26236 12.6073 17.5733 5.524 28.9489 2.09252C33.0382 0.859154 37.2406 0.385932 41.5054 0.551435C48.0524 0.805927 54.1843 2.54745 59.8812 5.79845C60.001 5.86665 60.1116 5.94898 60.2272 6.02467C60.2347 6.26668 60.0276 6.28831 59.8762 6.36482C59.5103 6.54862 59.0728 6.58022 58.7668 6.89127C58.6171 6.91788 58.5015 6.83638 58.3801 6.76984C55.8385 5.38844 53.1688 4.32556 50.3852 3.53963C48.2594 2.93916 46.0946 2.54828 43.9023 2.31874C42.1533 2.13494 40.3935 2.05926 38.637 2.14409C35.1382 2.31292 31.7075 2.87762 28.3625 3.95547C23.6095 5.48657 19.3231 7.84519 15.4816 11.033C12.5707 13.4482 10.0849 16.2409 7.99489 19.3846C6.43301 21.7341 5.14226 24.2275 4.1509 26.8722C4.09435 27.0219 4.06857 27.204 3.86231 27.2414Z" fill="#FEF800"/>
  <path d="M58.8129 6.8554C58.7098 6.62918 58.8886 6.62835 59.025 6.57014C59.4292 6.39715 59.8957 6.35889 60.2267 6.02539C62.0963 7.06165 63.8254 8.30334 65.4663 9.66562C71.0169 14.2747 75.0571 19.9617 77.5738 26.7249C77.968 27.7861 78.3322 28.8581 78.5926 29.9626C78.1285 30.0266 77.7143 30.2495 77.2719 30.3792C77.0573 30.3601 77.0789 30.1663 77.0431 30.0382C76.5192 28.1836 75.8422 26.3864 75.0505 24.6299C74.1489 22.6305 73.0661 20.7343 71.8344 18.923C70.344 16.7307 68.6441 14.7097 66.7296 12.8767C64.4832 10.7243 62.0223 8.85058 59.326 7.29036C59.1348 7.17975 58.8736 7.12902 58.8129 6.8554Z" fill="#FEF900"/>
  <path d="M58.8124 6.85499C60.1697 7.67918 61.532 8.49588 62.8078 9.44648C69.9377 14.76 74.7605 21.6704 77.2007 30.2325C77.2156 30.284 77.2472 30.3306 77.2714 30.3788C77.5317 31.5806 77.8377 32.7707 78.0431 33.9858C78.5995 37.2817 78.7509 40.5901 78.454 43.9209C77.767 51.6164 75.0483 58.5151 70.2238 64.5397C64.3031 71.9333 56.655 76.5582 47.3636 78.4095C43.1321 79.2528 38.8647 79.3435 34.5908 78.7081C25.3185 77.3308 17.5349 73.1442 11.2849 66.1781C6.40044 60.7348 3.35237 54.3684 2.09239 47.1545C1.54348 44.0132 1.38962 40.8521 1.62831 37.6751C1.89112 34.1804 2.61218 30.7797 3.79898 27.4796C3.82642 27.4023 3.84139 27.3208 3.86218 27.2418C4.39861 25.956 4.89678 24.6519 5.54216 23.4152C11.2882 12.4039 20.1846 5.41038 32.3411 2.82887C41.4621 0.892737 50.1988 2.28828 58.4406 6.67868C58.5621 6.74272 58.6885 6.79677 58.8124 6.85499Z" fill="black"/>
  <path d="M40.0382 78.1081C19.3096 78.1015 2.514 61.2867 2.52149 40.5498C2.5298 19.7955 19.3445 3.00902 40.1122 3.02149C60.835 3.0348 77.6256 19.8628 77.6073 40.6022C77.5898 61.3375 60.7842 78.1148 40.0382 78.1081Z" fill="#FDF800"/>
  <path d="M36.3423 28.3104C34.2183 28.1516 32.0942 27.9919 29.9701 27.833C28.3699 27.7133 26.7698 27.576 25.168 27.4846C24.5659 27.4505 24.017 27.2043 23.4198 27.1602C22.9408 27.1244 22.4775 27.1644 22.0293 27.3182C21.1519 27.6193 20.7535 28.3029 20.6637 29.1745C20.3867 31.8733 20.7352 34.4964 21.6883 37.0363C22.2214 38.456 23.4198 39.1313 24.7181 39.6785C24.9834 39.7908 25.2678 39.8573 25.5439 39.9447C25.5705 39.958 25.5805 39.9721 25.5739 39.9887C25.5664 40.0062 25.5589 40.0145 25.5506 40.0145C24.6432 39.9879 23.765 39.8274 22.9383 39.4407C22.0842 39.0406 21.5111 38.3778 21.1402 37.5178C20.4865 36.0042 20.1663 34.4107 19.9892 32.7848C19.8461 31.4749 19.7929 30.1609 20.0466 28.8543C20.3227 27.4338 20.9872 26.7793 22.4143 26.5173C22.4534 26.5098 22.49 26.4907 22.5599 26.4658C22.3919 26.1971 22.2081 26.0499 21.8688 26.0641C21.2192 26.0898 20.5672 26.0557 19.916 26.0657C19.6998 26.069 19.6016 26.0017 19.5318 25.7929C19.3796 25.3363 19.1933 24.8906 19.0078 24.404C19.3895 24.404 19.7405 24.3949 20.0898 24.4057C20.7269 24.4257 21.3623 24.4681 21.9993 24.4789C22.2231 24.483 22.347 24.5504 22.4401 24.7592C22.653 25.2382 22.9009 25.7006 23.1188 26.1772C23.2069 26.3701 23.3084 26.4691 23.5404 26.4874C23.8822 26.5148 24.229 26.578 24.5559 26.6828C24.8204 26.7676 24.9326 26.7036 25.0674 26.4707C25.8857 25.0544 26.9087 23.8144 28.2394 22.8397C29.4628 21.944 30.8666 21.573 32.337 21.4C34.6674 21.1264 37.0027 21.1181 39.3463 21.2088C40.9639 21.2711 42.5849 21.0907 44.2058 21.1663C45.9748 21.2487 47.7512 21.3036 49.4611 21.8325C51.1644 22.359 52.4427 23.4842 53.5372 24.844C53.963 25.3721 54.353 25.9268 54.6699 26.5281C54.7747 26.7269 54.8878 26.7652 55.0932 26.6978C55.6097 26.529 56.1436 26.445 56.6867 26.4682C56.9013 26.4774 57.0011 26.4025 57.0876 26.2104C57.3146 25.7081 57.5699 25.2182 57.8086 24.7209C57.871 24.5903 57.9267 24.4847 58.1039 24.4855C59.1268 24.4914 60.1506 24.4889 61.1819 24.4889C61.023 24.9072 60.8234 25.4004 60.6513 25.9035C60.5839 26.0998 60.4483 26.0574 60.3194 26.0591C59.7098 26.0665 59.0994 26.0948 58.4914 26.0624C58.0822 26.0408 57.8045 26.1805 57.6049 26.519C59.1501 26.9822 59.6998 28.1466 59.7872 29.6294C59.9435 32.3016 59.5975 34.8989 58.6203 37.4014C57.9874 39.0215 56.685 39.6993 55.0674 39.933C54.7664 39.9763 54.4628 40.0012 54.1601 40.0345C54.0794 40.0519 54.0528 40.0237 54.0861 39.9463C54.7123 39.8149 55.2928 39.5679 55.8625 39.2818C57.1973 38.6115 57.9841 37.522 58.3675 36.1007C58.9663 33.8818 59.2923 31.6404 59.0661 29.335C58.9014 27.6642 57.8544 26.9639 56.4572 27.1785C53.197 27.6808 49.9094 27.7706 46.6368 28.0667C45.549 28.1649 44.4586 28.2297 43.3691 28.3104C43.2693 28.3154 43.1379 28.4202 43.1022 28.2247C46.7308 27.7582 50.3602 27.2916 54.0428 26.8184C52.5392 24.3367 50.6521 22.5137 47.6672 22.1361C45.6546 21.8816 43.6386 21.8125 41.6176 21.8774C39.2499 21.9539 36.8813 21.771 34.5143 21.9007C33.3533 21.9647 32.1981 22.0762 31.0612 22.329C29.2432 22.734 27.8817 23.8252 26.7498 25.244C26.4147 25.664 26.1294 26.1248 25.8175 26.5631C25.687 26.7469 25.6828 26.8358 25.9506 26.8691C28.6402 27.2034 31.329 27.5469 34.0178 27.8896C34.8819 27.9994 35.7452 28.1141 36.6085 28.2264C36.5719 28.4218 36.4421 28.3179 36.3423 28.3104Z" fill="black"/>
  <path d="M39.9565 55.1583C30.3258 55.1583 20.6959 55.1583 11.0651 55.1583C10.9545 55.1583 10.843 55.1591 10.7324 55.1575C10.5187 55.1541 10.6002 54.9903 10.5902 54.8838C10.5802 54.7757 10.5636 54.6501 10.7416 54.6601C10.8381 54.6651 10.9354 54.6609 11.0327 54.6609C30.3349 54.6609 49.6372 54.6609 68.9395 54.6618C69.1565 54.6618 69.4343 54.572 69.3811 54.9778C69.362 55.125 69.3146 55.1691 69.179 55.1599C69.0684 55.1533 68.9578 55.1591 68.8463 55.1591C59.2172 55.1583 49.5873 55.1583 39.9565 55.1583Z" fill="black"/>
  <path d="M45.5538 50.0088C46.0462 49.153 46.5485 48.3413 46.986 47.4955C47.2263 47.0314 47.5582 46.9116 48.0297 46.9632C48.2676 46.989 48.3807 47.0946 48.3807 47.3308C48.3799 49.1039 48.3807 50.8762 48.379 52.6493C48.379 52.883 48.2684 53.0111 48.0198 52.9978C47.8958 52.9911 47.7694 52.9862 47.6463 52.9986C47.297 53.0336 47.1806 52.8672 47.1839 52.5354C47.1939 51.5673 47.1872 50.5993 47.1157 49.5963C46.8255 50.0978 46.5352 50.5993 46.245 51.1008C45.8532 51.7777 45.2528 51.7736 44.8544 51.0916C44.5658 50.5976 44.2797 50.1011 43.9171 49.6245C43.9171 50.5444 43.9196 51.4642 43.9154 52.384C43.9146 52.5853 43.9911 52.8548 43.7641 52.9471C43.4846 53.061 43.1578 53.0485 42.8709 52.9504C42.6671 52.8805 42.7253 52.6435 42.7253 52.4697C42.722 50.8488 42.7195 49.2287 42.7287 47.6077C42.7303 47.3832 42.6064 47.083 42.9607 46.9815C43.3907 46.8584 43.7949 46.9757 43.9836 47.2975C44.3895 47.9886 44.7837 48.6864 45.1837 49.3809C45.3002 49.5813 45.4199 49.7809 45.5538 50.0088Z" fill="black"/>
  <path d="M14.3696 49.972C14.3696 49.1412 14.3829 48.3095 14.3638 47.4787C14.3554 47.1111 14.4644 46.9489 14.8569 46.9605C15.7011 46.9863 16.5502 46.9298 17.3902 46.9946C18.9313 47.1136 19.5393 48.4692 18.6369 49.72C18.5354 49.8614 18.5928 49.8997 18.6768 49.9803C19.2765 50.5542 19.3422 51.2445 19.0253 51.9606C18.7001 52.6941 18.0822 53.0068 17.2854 52.9985C16.482 52.9893 15.6778 52.9802 14.8752 53.0035C14.4968 53.0143 14.3538 52.8945 14.3638 52.5078C14.3846 51.6628 14.3696 50.817 14.3696 49.972Z" fill="black"/>
  <path d="M41.9465 37.1943C42.3757 36.9898 42.848 37.0305 43.2996 36.9681C44.3392 36.8243 45.3855 36.722 46.4292 36.6064C46.5581 36.5922 46.6737 36.5748 46.7486 36.4533C46.9773 36.0807 47.2085 35.709 47.4755 35.2773C45.9019 35.3414 44.3925 35.4021 42.883 35.4628C42.6759 35.4603 42.448 35.6125 42.2725 35.3796C43.9317 35.0977 45.5901 34.8141 47.2493 34.5338C47.5711 34.4798 48.0743 33.7887 48.0161 33.4685C47.9861 33.3055 47.8622 33.3845 47.7882 33.3919C46.3594 33.5308 44.9322 33.6789 43.5034 33.8211C42.7067 33.9001 41.9099 33.9733 41.1132 34.049C41.0283 34.0781 41.0092 34.0415 41.0317 33.9658C42.7732 33.5899 44.5155 33.2148 46.2571 32.8364C47.0264 32.6692 47.7948 32.4979 48.5608 32.3166C48.7438 32.2733 48.8377 32.3232 48.9193 32.4846C49.0798 32.8056 49.2536 33.12 49.4324 33.431C49.4914 33.5342 49.5181 33.6315 49.4939 33.7462C49.232 35.0012 48.8336 36.1955 48.0402 37.2318C47.3075 38.1882 46.2895 38.5916 45.1484 38.7587C43.7105 38.9691 42.2833 38.8469 40.8604 38.55C41.7527 38.4626 42.6451 38.3728 43.5375 38.288C44.1987 38.2248 44.8599 38.1632 45.5227 38.1125C45.6749 38.1009 45.7814 38.0443 45.877 37.9337C46.0749 37.7042 46.2779 37.4796 46.5157 37.2118C45.0478 37.2118 43.6215 37.2118 42.1944 37.2118C42.1079 37.2426 42.0239 37.2601 41.9465 37.1943Z" fill="black"/>
  <path d="M37.6057 37.2108C36.1694 37.2108 34.734 37.2108 33.2536 37.2108C33.6578 37.6582 33.9414 38.134 34.6774 38.1647C36.0962 38.2238 37.5101 38.4134 39.0171 38.5573C38.3875 38.7419 37.8211 38.7569 37.2631 38.8109C36.1969 38.9149 35.1357 38.8717 34.0819 38.6612C32.5442 38.3535 31.5944 37.3655 30.9698 35.9966C30.6995 35.4052 30.5224 34.7832 30.351 34.1569C30.2388 33.7469 30.3086 33.4242 30.519 33.0682C30.9773 32.294 30.9632 32.2748 31.8397 32.467C33.9855 32.936 36.1287 33.4142 38.2735 33.8883C38.2619 34.0505 38.1546 33.9739 38.0756 33.9681C36.6709 33.84 35.2671 33.7128 33.8624 33.5822C33.1621 33.5174 32.4618 33.4458 31.6934 33.371C31.8273 33.7253 31.9387 34.0388 32.0651 34.3465C32.135 34.5162 32.3113 34.5021 32.4585 34.5262C34.1476 34.8123 35.8368 35.0975 37.5259 35.3836C37.4078 35.6073 37.2281 35.4618 37.0726 35.4601C35.9133 35.4967 34.7597 35.3612 33.6029 35.3262C33.1787 35.3129 32.7554 35.288 32.2697 35.2664C32.5375 35.693 32.7779 36.0722 33.0132 36.4548C33.0889 36.5779 33.202 36.592 33.3309 36.607C34.7822 36.7758 36.2335 36.9505 37.6847 37.1226C37.713 37.2008 37.6889 37.2316 37.6057 37.2108Z" fill="black"/>
  <path d="M35.6596 49.9787C35.6596 50.837 35.6413 51.6953 35.6662 52.5527C35.682 53.0767 35.341 52.9802 35.0283 52.9985C34.6865 53.0184 34.4653 52.9577 34.4869 52.5369C34.5119 52.0396 34.4844 51.5406 34.4961 51.0424C34.5011 50.8245 34.4179 50.7804 34.2091 50.7538C33.6278 50.6806 33.217 50.8153 32.9857 51.4191C32.8244 51.84 32.5533 52.2192 32.3287 52.6159C32.1466 52.9369 31.3607 53.1598 31.0596 52.9661C30.8592 52.8371 30.9723 52.6766 31.0521 52.5319C31.3598 51.9764 31.6642 51.4183 31.9827 50.8694C32.085 50.6931 32.1349 50.6041 31.8988 50.4702C31.1594 50.0494 30.865 49.2626 31.0579 48.3553C31.2151 47.6176 31.8239 47.0969 32.6564 47.0096C33.5396 46.9165 34.4262 46.9838 35.3111 46.9664C35.6196 46.9605 35.6637 47.1543 35.6621 47.4047C35.6562 48.2629 35.6596 49.1212 35.6596 49.9787Z" fill="black"/>
  <path d="M24.9785 50.1132C24.9976 49.462 24.996 48.9489 25.1473 48.4532C25.312 47.9151 25.6364 47.4993 26.1262 47.2174C27.6656 46.3325 29.6533 47.066 29.9993 48.6836C30.1848 49.551 30.174 50.4467 29.9935 51.3192C29.7972 52.2706 29.1826 52.8262 28.2328 53.0174C27.7089 53.1231 27.1858 53.1139 26.6701 52.9817C25.7711 52.7505 25.1715 52.0477 25.0534 51.0888C25.0085 50.7195 24.996 50.3461 24.9785 50.1132Z" fill="black"/>
  <path d="M61.3129 49.9771C61.3262 49.5113 61.2605 49.0373 61.3911 48.5757C61.5566 47.9902 61.8593 47.5078 62.4074 47.2251C63.3422 46.7419 64.3011 46.7477 65.2343 47.2126C65.8406 47.5145 66.1757 48.0634 66.293 48.7196C66.4352 49.513 66.4369 50.318 66.3121 51.114C66.14 52.2159 65.5345 52.8297 64.4342 53.0335C63.9127 53.1299 63.3871 53.1125 62.8748 52.9569C61.9733 52.6825 61.4003 51.9614 61.3171 50.9701C61.2896 50.6407 61.3129 50.3081 61.3129 49.9771Z" fill="black"/>
  <path d="M12.9076 52.9955C12.5525 53.097 12.357 52.8757 12.2539 52.5048C12.2131 52.3593 12.1308 52.2254 12.0942 52.079C12.0451 51.8827 11.9404 51.8237 11.7399 51.827C11.0064 51.8386 10.272 51.8386 9.53849 51.827C9.3522 51.8245 9.25905 51.8844 9.2158 52.0607C9.19002 52.1671 9.13513 52.2661 9.09604 52.3692C8.84488 53.0196 8.84571 53.0196 8.14461 52.9955C7.75622 52.9822 7.67555 52.8732 7.81693 52.5048C8.36001 51.0868 8.90892 49.6713 9.45616 48.255C9.51604 48.1003 9.57924 47.9472 9.63996 47.7934C9.96597 46.965 10.2978 46.7904 11.1627 46.975C11.3416 47.0133 11.4089 47.1305 11.4655 47.2769C12.1433 49.0268 12.8253 50.7758 13.4981 52.5281C13.6469 52.9148 13.5488 52.9955 12.9076 52.9955Z" fill="black"/>
  <path d="M52.0376 46.9688C52.7803 46.9688 52.782 46.9679 53.0356 47.62C53.656 49.2143 54.2756 50.8094 54.8936 52.4046C55.0848 52.8986 55.0158 52.9526 54.4994 53.0067C53.9945 53.0591 53.7517 52.8487 53.6552 52.3921C53.5621 51.9505 53.3325 51.7717 52.8501 51.8182C52.2605 51.8748 51.66 51.8457 51.0662 51.8249C50.8134 51.8157 50.6778 51.8931 50.6254 52.1376C50.6088 52.2174 50.5639 52.2906 50.5339 52.368C50.2753 53.0266 50.1472 53.1007 49.4594 52.9942C49.2141 52.956 49.1226 52.8337 49.2174 52.5892C49.906 50.8136 50.5963 49.0388 51.2775 47.2598C51.443 46.8274 51.8081 47.0236 52.0376 46.9688Z" fill="black"/>
  <path d="M68.6974 50.5503C68.6974 51.278 68.6849 51.8967 68.7024 52.5138C68.7124 52.8656 68.5976 53.0411 68.2258 52.9987C68.1028 52.9846 67.9772 52.9945 67.8524 52.9962C67.627 52.9995 67.5322 52.8914 67.5322 52.6652C67.5356 50.8788 67.5364 49.0915 67.5322 47.3051C67.5314 47.0747 67.6387 46.9757 67.8549 46.9707C67.993 46.9674 68.1327 46.9766 68.2699 46.9674C68.5959 46.9458 68.7099 47.1013 68.7016 47.4165C68.6874 47.9696 68.6974 48.5235 68.6974 49.1822C69.0076 48.847 69.2604 48.5742 69.5116 48.3006C69.7453 48.0461 70.0148 47.8141 70.2019 47.528C70.5504 46.9982 71.0377 46.9017 71.6074 46.9691C71.7305 46.9832 71.8652 46.9749 71.9318 47.1096C72.0091 47.266 71.906 47.3674 71.8104 47.4714C71.1641 48.1742 70.5262 48.8852 69.8684 49.578C69.673 49.7835 69.6389 49.9016 69.8568 50.1319C70.5778 50.8971 71.2656 51.6938 71.9675 52.4764C72.0599 52.5795 72.1788 52.671 72.1206 52.8324C72.0524 53.0212 71.8827 52.9754 71.7355 52.9979C71.1317 53.0918 70.6901 52.8839 70.3108 52.3924C69.8385 51.782 69.2945 51.2247 68.6974 50.5503Z" fill="black"/>
  <path d="M37.0306 49.9579C37.0306 49.0996 37.0373 48.2405 37.0264 47.3822C37.0231 47.1052 37.1204 46.9647 37.4065 46.9688C38.2781 46.9813 39.1522 46.9514 40.0205 47.0096C41.154 47.0861 41.7745 47.7988 41.7695 48.9191C41.7645 50.0252 41.1199 50.7363 40.0005 50.8261C39.5048 50.8661 39.0042 50.8544 38.506 50.8428C38.2673 50.8369 38.1949 50.9168 38.2024 51.1505C38.2182 51.6345 38.2016 52.1194 38.2091 52.6042C38.2132 52.8845 38.0951 53.0168 37.8107 52.9976C37.6868 52.9893 37.5612 52.9885 37.4373 52.9976C37.1263 53.0217 37.0231 52.8704 37.0264 52.5751C37.0364 51.7027 37.0306 50.8303 37.0306 49.9579Z" fill="black"/>
  <path d="M55.8091 49.9587C55.8091 49.1004 55.8149 48.2413 55.8057 47.383C55.8024 47.1077 55.8981 46.9647 56.185 46.9688C57.0566 46.9813 57.9307 46.953 58.7998 47.0096C59.9275 47.0836 60.5546 47.8038 60.5479 48.9224C60.5413 50.0219 59.8876 50.738 58.7707 50.8261C58.2891 50.8644 57.8009 50.8611 57.3177 50.8403C57.0325 50.8278 56.9684 50.9293 56.9801 51.1929C57 51.6628 56.9792 52.1344 56.9875 52.6051C56.9925 52.8887 56.867 53.0159 56.5867 52.996C56.5725 52.9951 56.5592 52.996 56.5451 52.996C55.8082 53.0143 55.8082 53.0143 55.8082 52.2849C55.8091 51.5098 55.8091 50.7338 55.8091 49.9587Z" fill="black"/>
  <path d="M53.2349 42.9158C50.453 42.984 47.6702 43.0513 44.8883 43.1195C39.267 43.2576 33.6441 43.3408 28.0261 43.5645C25.9893 43.6452 24.0382 43.2809 22.0614 42.9773C21.9524 42.9607 21.8435 42.9416 21.7345 42.9233C21.732 42.8584 21.7628 42.8193 21.8277 42.8151C21.9524 42.8068 22.0772 42.811 22.2019 42.811C31.7911 42.811 41.3794 42.811 50.9686 42.811C51.6098 42.811 52.2519 42.8052 52.8931 42.816C53.007 42.8185 53.1725 42.7137 53.2349 42.9158Z" fill="#020200"/>
  <path d="M22.4847 29.2191C22.3999 29.9584 22.6943 30.5398 23.2399 31.0113C23.8561 31.5444 24.5439 31.927 25.4787 32.021C24.9423 31.3606 24.4607 30.7685 23.9676 30.1614C25.5852 30.1955 28.4844 32.3428 29.1589 34.032C28.4054 33.8631 27.6893 33.7126 26.9782 33.5413C25.6359 33.2186 24.2903 32.9009 23.0336 32.3096C22.0564 31.8505 21.7986 31.2825 22.0331 30.2321C22.1179 29.8528 22.2585 29.4944 22.4024 29.1367C22.4772 29.1168 22.5171 29.1318 22.4847 29.2191Z" fill="black"/>
  <path d="M50.499 34.0303C51.6808 31.8813 53.5271 30.8018 55.7311 30.173C55.4974 30.4616 55.2637 30.7502 55.0291 31.038C54.7871 31.3349 54.5451 31.6309 54.2923 31.9412C55.667 32.1208 57.2223 30.6396 57.2713 29.165C57.6389 29.9002 57.9134 30.6562 57.6256 31.4954C57.5125 31.8256 57.2422 32.0268 56.9403 32.1848C56.0404 32.6547 55.0724 32.9325 54.1002 33.1986C52.9458 33.5139 51.7798 33.7825 50.499 34.0303Z" fill="black"/>
  <path d="M21.4944 50.4537C21.4944 49.7759 21.4836 49.0973 21.5002 48.4203C21.5068 48.16 21.4495 48.0485 21.1642 48.0701C20.8199 48.0959 20.4731 48.071 20.1271 48.0776C19.7429 48.0843 19.7204 47.8373 19.7329 47.5478C19.7445 47.2767 19.6647 46.964 20.1063 46.9648C21.4345 46.9682 22.7627 46.9682 24.0908 46.9648C24.4568 46.964 24.4718 47.201 24.4618 47.4705C24.4518 47.7408 24.5291 48.0635 24.1 48.0735C23.7407 48.0818 23.3789 48.0943 23.0213 48.0701C22.7369 48.0502 22.6803 48.1608 22.6828 48.4219C22.6945 49.7642 22.6895 51.1057 22.6878 52.4481C22.687 52.9778 22.6629 52.9961 22.0724 52.9953C21.5276 52.9945 21.4969 52.967 21.4952 52.4456C21.4927 51.7819 21.4944 51.1182 21.4944 50.4537Z" fill="#010100"/>
  <path d="M38.7689 40.009C37.2511 40.3749 35.7341 40.7467 34.1748 40.8947C33.4412 40.9638 32.7085 40.9846 31.9858 40.8132C30.8273 40.5379 29.989 39.8402 29.4109 38.8156C29.1398 38.3348 28.8471 37.8616 28.6275 37.3585C27.9663 35.8448 26.7479 35.0256 25.2434 34.5241C24.3652 34.2314 23.467 34.0293 22.5039 33.8596C24.7636 33.3315 27.9422 34.406 28.9685 36.5401C29.2612 37.1489 29.6222 37.7244 29.9391 38.3207C30.611 39.5865 31.6631 40.2036 33.0911 40.2452C34.7569 40.2943 36.4086 40.1454 38.0612 39.9782C38.24 39.9599 38.4196 39.9475 38.5984 39.9325C38.6774 39.9067 38.7689 39.8551 38.7689 40.009Z" fill="black"/>
  <path d="M41.1132 39.9351C42.3682 40.0357 43.6224 40.1455 44.8774 40.2337C45.6658 40.2894 46.4559 40.2761 47.2418 40.1805C48.2739 40.054 49.0449 39.506 49.5788 38.6344C49.9605 38.0106 50.3173 37.3702 50.6475 36.7174C51.5665 34.9027 53.1583 34.1134 55.0579 33.7882C55.759 33.6685 56.465 33.7059 57.172 33.8373C56.4393 34.0061 55.6991 34.1409 54.978 34.3604C54.4482 34.5218 53.9393 34.7313 53.4311 34.9484C52.236 35.4591 51.5391 36.423 50.9901 37.5441C50.724 38.0888 50.4238 38.6202 50.0944 39.1292C49.3759 40.242 48.3529 40.835 47.0106 40.845C44.9481 40.8599 42.9379 40.4965 40.9444 40.0125C40.9419 39.8603 41.0284 39.9002 41.1132 39.9351Z" fill="black"/>
  <path d="M55.6635 36.7385C56.1176 36.1089 56.5725 35.4802 57.0266 34.8506C57.0582 34.8755 57.089 34.8997 57.1206 34.9246C56.392 36.4956 55.9047 38.2679 53.8962 38.7985C53.2325 38.974 52.558 39.0963 51.7588 38.9208C53.5136 38.5582 54.9907 37.9935 55.5188 36.1596C55.6444 36.2445 55.567 36.3551 55.5803 36.4466C55.5936 36.5364 55.5828 36.6304 55.5828 36.7218C55.6103 36.7277 55.6369 36.7327 55.6635 36.7385Z" fill="#010100"/>
  <path d="M27.9513 39.0128C27.4098 39.0212 26.8767 38.9505 26.3511 38.8282C25.4795 38.6245 24.8001 38.1471 24.2961 37.4002C23.7871 36.6451 23.4062 35.8309 23.1143 34.9609C23.6665 35.4782 24.0283 36.1477 24.5397 36.7781C24.5397 36.5478 24.5397 36.3681 24.5397 36.1877C25.1768 37.9566 26.6048 38.587 28.2831 38.8706C28.2482 39.0919 28.0436 38.9205 27.9513 39.0128Z" fill="#010100"/>
  <path d="M18.1812 58.4572C18.4856 57.8692 18.7634 57.332 19.0412 56.7947C19.0969 56.6866 19.1335 56.5452 19.294 56.5643C19.4736 56.586 19.4437 56.7373 19.4445 56.8554C19.447 57.6588 19.4478 58.4614 19.4445 59.2648C19.4437 59.382 19.4728 59.5559 19.2915 59.5425C19.1343 59.5309 19.1509 59.3679 19.1518 59.244C19.1518 58.6235 19.1518 58.0031 19.0819 57.3544C18.8815 57.7503 18.6819 58.147 18.4798 58.542C18.4116 58.6759 18.36 58.8348 18.1646 58.824C17.9949 58.8148 17.9508 58.6734 17.8885 58.5504C17.6938 58.1711 17.4959 57.7935 17.2971 57.4101C17.1375 57.4709 17.2057 57.6006 17.2048 57.6921C17.1973 58.2318 17.2015 58.7724 17.1998 59.3122C17.199 59.4236 17.1973 59.5583 17.0401 59.5467C16.9262 59.5384 16.9062 59.4303 16.9062 59.3255C16.9079 58.4805 16.9071 57.6364 16.9071 56.7914C16.9071 56.6924 16.9087 56.5918 17.0352 56.5652C17.1724 56.5361 17.2339 56.625 17.2863 56.729C17.4926 57.1349 17.6997 57.5415 17.9084 57.9466C17.9899 58.1046 18.0756 58.2593 18.1812 58.4572Z" fill="#050400"/>
  <path d="M48.2996 57.9578C48.2996 58.2621 48.3454 58.5749 48.2872 58.8676C48.2256 59.1787 48.5433 59.3483 48.4934 59.6344C48.471 59.7633 48.5458 59.9554 48.3753 59.9937C48.1674 60.0394 48.1882 59.8456 48.1857 59.7134C48.1807 59.4988 48.0202 59.5712 47.9154 59.5695C47.4455 59.5629 46.9756 59.5737 46.5057 59.5637C46.3028 59.5596 46.1473 59.5704 46.1872 59.8382C46.2013 59.9313 46.1498 60.0087 46.0516 60.0078C45.956 60.007 45.9111 59.933 45.9152 59.8373C45.9277 59.5937 45.8088 59.3042 46.2155 59.231C46.4259 59.1928 46.4267 58.9707 46.4259 58.7861C46.425 58.164 46.435 57.5419 46.4209 56.9207C46.4151 56.6653 46.47 56.5373 46.7602 56.5531C47.1594 56.5747 47.5619 56.5714 47.962 56.5539C48.2123 56.5431 48.3138 56.6246 48.303 56.8816C48.2888 57.2392 48.2996 57.5985 48.2996 57.9578Z" fill="#040400"/>
  <path d="M61.1834 58.0485C61.1834 57.6476 61.1876 57.2459 61.1817 56.8451C61.1784 56.6363 61.2607 56.5457 61.4778 56.5532C61.823 56.5656 62.1706 56.5424 62.5149 56.564C63.1844 56.6056 63.5079 57.2434 63.1162 57.7832C62.9848 57.9645 63.0081 58.0302 63.137 58.1749C63.3707 58.4369 63.379 58.7554 63.2526 59.0681C63.1262 59.3817 62.8634 59.5206 62.539 59.558C62.5116 59.5613 62.4841 59.5613 62.4559 59.563C61.1826 59.6395 61.1826 59.6395 61.1826 58.3803C61.1834 58.2697 61.1834 58.1591 61.1834 58.0485Z" fill="#040400"/>
  <path d="M52.7589 57.5313C52.7589 57.3117 52.7589 57.093 52.7589 56.8734C52.7589 56.7487 52.7472 56.5898 52.9094 56.5807C53.0891 56.5698 53.0624 56.7378 53.0641 56.8559C53.0683 57.0905 53.0649 57.325 53.0649 57.6161C53.3436 57.3874 53.4708 57.1013 53.6596 56.8668C53.7286 56.7811 53.7868 56.6846 53.865 56.6081C53.9274 56.5466 54.0222 56.5358 54.0946 56.5915C54.1935 56.668 54.1045 56.742 54.0638 56.8011C53.8268 57.1412 53.5922 57.483 53.3386 57.8107C53.2155 57.9696 53.2171 58.0852 53.3377 58.2415C53.5914 58.5692 53.8292 58.9085 54.0679 59.247C54.1262 59.3302 54.2517 59.4325 54.127 59.5298C53.9972 59.6312 53.9008 59.5115 53.8259 59.41C53.5972 59.099 53.3718 58.7854 53.0649 58.3613C53.0649 58.7505 53.0649 59.0266 53.0649 59.3027C53.0649 59.4158 53.06 59.5497 52.9152 59.5456C52.7805 59.5422 52.7589 59.415 52.7589 59.2977C52.7597 59.0391 52.7589 58.7813 52.7589 58.3962C52.4836 58.7729 52.2807 59.0565 52.0703 59.3343C51.9829 59.4499 51.8856 59.647 51.721 59.5306C51.5546 59.4125 51.7484 59.2911 51.8174 59.1904C52.0819 58.8029 52.5634 58.4236 52.5676 58.0378C52.5718 57.656 52.0944 57.2709 51.8341 56.8834C51.7742 56.7936 51.6178 56.6855 51.78 56.5815C51.9081 56.5 52.0054 56.6206 52.0811 56.7262C52.279 57.004 52.4786 57.2809 52.6782 57.5579C52.7057 57.5487 52.7323 57.5396 52.7589 57.5313Z" fill="#030300"/>
  <path d="M30.6134 58.2866C30.0636 57.9772 29.9006 57.6421 30.0395 57.1347C30.1452 56.7488 30.4562 56.5667 31.0234 56.5567C32.0854 56.5384 32.0854 56.5384 32.0854 57.6055C32.0854 58.1444 32.0888 58.6833 32.0829 59.2222C32.0813 59.3478 32.1345 59.5499 31.9332 59.5408C31.7519 59.5324 31.796 59.3378 31.791 59.2064C31.7877 59.11 31.7902 59.0127 31.7902 58.9162C31.7902 58.2658 31.7902 58.2758 31.1515 58.2982C30.9677 58.3049 30.882 58.3847 30.803 58.5253C30.6408 58.8139 30.4687 59.0967 30.2998 59.3819C30.2341 59.4925 30.1476 59.6181 30.0121 59.5308C29.8815 59.446 30.0013 59.3345 30.052 59.2447C30.2316 58.9345 30.4146 58.6259 30.6134 58.2866Z" fill="#050500"/>
  <path d="M50.9983 42.8432C44.7259 42.8457 38.4526 42.849 32.1801 42.8507C28.8426 42.8515 25.5059 42.8499 22.1684 42.8532C22.0237 42.8532 21.8615 42.7916 21.7351 42.9239C21.5613 42.8989 21.3875 42.8732 21.1621 42.8407C21.3243 42.7284 21.454 42.7642 21.5738 42.7642C31.2578 42.7642 40.9426 42.7659 50.6266 42.7684C50.7513 42.7684 50.8752 42.7775 51 42.7817C51.0266 42.7958 51.0358 42.8099 51.0266 42.8233C51.0175 42.8366 51.0083 42.8432 50.9983 42.8432Z" fill="#383707"/>
  <path d="M66.1478 58.049C66.1478 57.8835 66.1328 57.7164 66.1503 57.5525C66.2202 56.8855 66.6202 56.5104 67.2589 56.5021C67.9209 56.493 68.3185 56.8622 68.3975 57.5575C68.4399 57.9301 68.4349 58.3019 68.3858 58.6728C68.3068 59.2699 67.9467 59.5835 67.3171 59.6059C66.6975 59.6275 66.2959 59.334 66.1819 58.7501C66.137 58.5214 66.137 58.2844 66.1162 58.0507C66.127 58.0499 66.137 58.049 66.1478 58.049Z" fill="#030300"/>
  <path d="M16.2236 58.0772C16.2236 58.2294 16.2361 58.3824 16.2211 58.533C16.1504 59.259 15.757 59.6183 15.0584 59.6058C14.3748 59.5933 14.0222 59.2457 13.9565 58.5213C13.924 58.1629 13.9215 57.8052 13.9789 57.4485C14.0762 56.8497 14.4438 56.5236 15.0493 56.502C15.6431 56.4804 16.0456 56.7964 16.1853 57.3761C16.2419 57.609 16.2203 57.8427 16.2236 58.0772Z" fill="#030300"/>
  <path d="M45.5798 58.1041C45.5798 58.2422 45.5889 58.3811 45.5781 58.5183C45.5215 59.2311 45.1548 59.5895 44.4736 59.6045C43.7709 59.6203 43.3808 59.2735 43.3209 58.5366C43.2935 58.194 43.2993 57.8447 43.3351 57.5028C43.4024 56.8658 43.7759 56.5281 44.393 56.5007C45.0184 56.4724 45.4392 56.8076 45.5515 57.4438C45.5897 57.66 45.5889 57.8829 45.6055 58.1025C45.598 58.1033 45.5889 58.1033 45.5798 58.1041Z" fill="#030300"/>
  <path d="M22.4672 58.1086C22.4672 58.4687 22.4705 58.8288 22.4655 59.1881C22.4638 59.332 22.5096 59.5457 22.295 59.5407C22.1112 59.5366 22.1603 59.3336 22.1594 59.2047C22.1561 58.5402 22.1353 57.8749 22.1669 57.2112C22.1836 56.8661 22.0596 56.7879 21.7502 56.8162C21.4891 56.8403 21.223 56.8403 20.9618 56.8162C20.6533 56.7879 20.5277 56.8644 20.5443 57.2104C20.5759 57.8599 20.5551 58.5111 20.5518 59.1623C20.551 59.3062 20.605 59.5266 20.4054 59.5374C20.1859 59.5499 20.2474 59.3245 20.2466 59.1873C20.2416 58.4255 20.2499 57.6645 20.2408 56.9027C20.2383 56.669 20.2882 56.5409 20.561 56.5492C21.0866 56.565 21.613 56.5625 22.1386 56.55C22.4006 56.5442 22.4746 56.6615 22.468 56.9018C22.4588 57.3052 22.4672 57.7069 22.4672 58.1086Z" fill="#090800"/>
  <path d="M39.9285 58.0825C39.9285 58.4834 39.9285 58.8843 39.9285 59.2851C39.9285 59.3974 39.9318 59.5396 39.7954 59.5471C39.6316 59.5563 39.6191 59.4082 39.6191 59.2785C39.6191 58.5599 39.6108 57.8405 39.6241 57.122C39.6283 56.8932 39.5725 56.8034 39.3297 56.8176C38.9995 56.8375 38.6652 56.8392 38.335 56.8176C38.083 56.8009 38.0024 56.8716 38.0098 57.1344C38.029 57.8247 38.0182 58.5167 38.0148 59.2078C38.014 59.3367 38.0639 59.5371 37.8793 59.5421C37.6863 59.5479 37.7354 59.345 37.7346 59.2178C37.7304 58.4435 37.7379 57.67 37.7296 56.8957C37.7271 56.6579 37.7878 56.5423 38.0547 56.5514C38.5654 56.5681 39.0777 56.5697 39.5883 56.5514C39.8761 56.5406 39.9418 56.6662 39.9327 56.9224C39.9177 57.3082 39.9285 57.6958 39.9285 58.0825Z" fill="#0A0A00"/>
  <path d="M26.0536 58.0418C26.0536 57.6401 26.0519 57.2392 26.0553 56.8375C26.0561 56.7336 26.022 56.5822 26.1783 56.5764C26.3538 56.5697 26.343 56.7261 26.348 56.85C26.3505 56.9049 26.348 56.9606 26.3488 57.0163C26.3538 57.9004 26.3538 57.9004 27.2603 57.9004C27.9664 57.9004 27.9664 57.9004 27.9664 57.1893C27.9664 57.0646 27.9623 56.9398 27.9681 56.8159C27.9723 56.7111 27.9448 56.5664 28.1128 56.5772C28.26 56.5864 28.2608 56.7203 28.2608 56.8309C28.2625 57.6476 28.2617 58.4643 28.2608 59.281C28.2608 59.3924 28.2583 59.5346 28.1203 59.5413C27.9357 59.5504 27.9689 59.3849 27.9681 59.2677C27.9648 58.9907 27.9531 58.7129 27.9714 58.4377C27.9856 58.2131 27.8991 58.1341 27.6862 58.1649C27.6454 58.1707 27.603 58.1657 27.5614 58.1657C27.188 58.1699 26.7297 58.0418 26.4644 58.2123C26.1609 58.4077 26.4012 58.9017 26.3505 59.261C26.333 59.3833 26.3522 59.5504 26.1867 59.5429C26.0162 59.5346 26.0561 59.3633 26.0553 59.2452C26.0519 58.8443 26.0536 58.4426 26.0536 58.0418Z" fill="#060600"/>
  <path d="M34.816 59.6001C34.4268 59.5768 34.0692 59.4878 33.8812 59.1003C33.838 59.0113 33.759 58.8799 33.8879 58.8025C34.0085 58.7302 34.0659 58.825 34.1374 58.9298C34.3952 59.3065 34.757 59.4205 35.1853 59.2758C35.4681 59.1801 35.6876 59.0021 35.6627 58.6778C35.6369 58.3385 35.3999 58.1921 35.0772 58.1372C34.895 58.1064 34.5632 58.2645 34.5632 57.9883C34.5632 57.7155 34.8992 57.8711 35.083 57.8287C35.3159 57.7746 35.5047 57.6806 35.5421 57.4211C35.5803 57.1542 35.4639 56.9687 35.2169 56.8606C34.836 56.6943 34.4019 56.8182 34.184 57.1733C34.1199 57.2773 34.0567 57.3812 33.9345 57.3155C33.8105 57.249 33.8746 57.1192 33.9103 57.0203C34.0758 56.567 34.8451 56.3558 35.3974 56.6078C35.854 56.8165 35.9904 57.3238 35.7142 57.8029C35.6643 57.8894 35.5338 57.9493 35.6702 58.0732C36.0045 58.3742 36.0394 58.7443 35.8556 59.1294C35.7043 59.4438 35.2751 59.6226 34.816 59.6001Z" fill="#040400"/>
  <path d="M25.5348 59.4235C25.519 59.5508 25.4441 59.5907 25.3335 59.54C25.2894 59.52 25.2578 59.4643 25.2287 59.4194C25.1056 59.2298 25.158 58.8746 24.9077 58.8389C24.4736 58.7765 24.0236 58.8106 23.5803 58.8256C23.4248 58.8306 23.4448 59.0102 23.3932 59.1142C23.3375 59.2248 23.2984 59.3429 23.2485 59.4568C23.2094 59.5458 23.1346 59.5841 23.0464 59.5483C22.9466 59.5075 22.9607 59.4169 22.9915 59.337C23.3308 58.4613 23.6643 57.5839 24.0178 56.7131C24.1109 56.4836 24.3846 56.4886 24.4794 56.7223C24.8328 57.5922 25.1672 58.4696 25.509 59.3437C25.5198 59.3695 25.5264 59.3961 25.5348 59.4235Z" fill="#030300"/>
  <path d="M40.7282 58.0697C40.7282 57.668 40.7357 57.2671 40.7249 56.8654C40.7191 56.6351 40.8022 56.5411 41.0384 56.5527C41.342 56.5677 41.6472 56.5469 41.9516 56.5594C42.5512 56.5843 42.8565 56.897 42.8515 57.4634C42.8473 57.9982 42.5329 58.305 41.9558 58.3292C41.7487 58.3375 41.5383 58.35 41.3337 58.3267C41.0642 58.2967 40.9985 58.4098 41.0176 58.656C41.0368 58.8897 41.0235 59.1259 41.0185 59.3613C41.016 59.4677 40.9669 59.5584 40.8488 59.5459C40.7523 59.5359 40.7299 59.4428 40.7291 59.3554C40.7274 58.9263 40.7282 58.4972 40.7282 58.068C40.7291 58.0697 40.7282 58.0697 40.7282 58.0697Z" fill="#050500"/>
  <path d="M60.6742 59.4337C60.6509 59.4678 60.6309 59.5319 60.5918 59.546C60.5494 59.5618 60.4854 59.541 60.4413 59.5169C60.4097 59.5003 60.3964 59.4512 60.3739 59.4163C60.2509 59.2258 60.2933 58.8715 60.0529 58.8366C59.6204 58.7734 59.1688 58.7942 58.7297 58.8316C58.526 58.8491 58.565 59.1202 58.4744 59.2649C58.4029 59.3805 58.4087 59.6259 58.1958 59.5402C58.0145 59.4678 58.1517 59.299 58.1958 59.1834C58.496 58.3983 58.8037 57.6165 59.109 56.8339C59.1639 56.6926 59.2013 56.5437 59.41 56.5553C59.5955 56.5661 59.6179 56.705 59.6678 56.8314C59.9789 57.6265 60.2916 58.4216 60.6026 59.2167C60.6284 59.2815 60.6467 59.3481 60.6742 59.4337Z" fill="#020200"/>
  <path d="M50.2073 58.8172C50.0028 58.8172 49.9038 58.8321 49.8098 58.8147C49.4771 58.7531 49.29 58.8837 49.2268 59.2155C49.2093 59.3078 49.1569 59.3952 49.1129 59.48C49.0771 59.5474 49.0122 59.5765 48.9382 59.5532C48.8343 59.5208 48.8259 59.4384 48.8592 59.3536C49.2068 58.4662 49.5428 57.5738 49.9138 56.6964C50.0069 56.4752 50.2506 56.4768 50.3454 56.7055C50.7063 57.5722 51.0365 58.4521 51.3792 59.327C51.4116 59.4093 51.4366 59.4958 51.3426 59.5432C51.2336 59.5981 51.1604 59.5316 51.1105 59.4359C51.1039 59.4235 51.0956 59.4118 51.0939 59.3985C51.0149 58.7731 50.5849 58.7473 50.2073 58.8172Z" fill="#020200"/>
  <path d="M12.0454 58.2674C12.0454 58.6841 12.0454 59.001 12.0454 59.3187C12.0454 59.4376 12.0213 59.5607 11.8757 59.549C11.7601 59.5399 11.751 59.4234 11.751 59.322C11.7518 58.4787 11.751 57.6345 11.7518 56.7912C11.7518 56.6931 11.7518 56.58 11.8824 56.5725C12.0437 56.5642 12.0412 56.6981 12.0429 56.807C12.0471 57.0798 12.0446 57.3534 12.0446 57.6653C12.645 57.3609 12.9586 56.7172 13.579 56.54C13.6123 56.5816 13.6455 56.6232 13.6788 56.6648C13.3054 56.9991 12.9502 57.3576 12.5535 57.6603C12.2225 57.9123 12.2192 58.077 12.5494 58.329C12.8887 58.5876 13.1889 58.8987 13.4975 59.1956C13.5873 59.2821 13.8035 59.3735 13.6963 59.5016C13.554 59.6721 13.4035 59.4941 13.2837 59.3852C12.966 59.0974 12.6508 58.8072 12.334 58.5194C12.2649 58.4554 12.1934 58.3955 12.0454 58.2674Z" fill="#040400"/>
  <path d="M55.6263 58.3371C55.9124 57.804 56.1785 57.3075 56.4463 56.811C56.517 56.6796 56.5943 56.4808 56.7698 56.5865C56.9345 56.6854 56.7598 56.8351 56.7041 56.9424C56.3482 57.6285 55.9839 58.3105 55.613 58.9883C55.4649 59.2578 55.2836 59.5065 54.946 59.5572C54.8412 59.573 54.704 59.6046 54.6632 59.4616C54.6191 59.3035 54.7555 59.3002 54.8611 59.2669C55.3718 59.1039 55.514 58.7638 55.2712 58.3022C55.0333 57.8506 54.7896 57.4015 54.5592 56.9449C54.5052 56.8376 54.3139 56.6979 54.4786 56.5964C54.6882 56.4667 54.7497 56.7046 54.8237 56.8393C55.0874 57.3217 55.3435 57.8082 55.6263 58.3371Z" fill="#040400"/>
  <path d="M64.5914 58.1643C64.5914 57.9846 64.5931 57.8042 64.5906 57.6245C64.5873 57.3759 64.6654 57.074 64.5515 56.8927C64.4376 56.7114 64.1157 56.8436 63.887 56.8245C63.7855 56.8153 63.6683 56.8128 63.6699 56.6922C63.6724 56.5791 63.7855 56.5558 63.8903 56.5567C64.4584 56.5583 65.0256 56.5567 65.5936 56.5583C65.6942 56.5583 65.8023 56.5799 65.7949 56.708C65.7882 56.8095 65.6901 56.8203 65.6036 56.822C65.5894 56.822 65.5761 56.8211 65.562 56.8228C65.3466 56.8486 65.0447 56.7172 64.9357 56.881C64.826 57.0465 64.89 57.3318 64.8883 57.5646C64.8842 58.1185 64.8883 58.6724 64.8858 59.2263C64.885 59.3586 64.9199 59.5457 64.7253 59.5432C64.5565 59.5407 64.5939 59.3627 64.5923 59.2455C64.5881 58.8845 64.5914 58.5244 64.5914 58.1643Z" fill="#080800"/>
  <path d="M29.3458 58.068C29.3458 58.4689 29.3483 58.8698 29.3442 59.2706C29.3433 59.3887 29.3675 59.5551 29.187 59.5476C29.0556 59.5426 29.0439 59.4078 29.0439 59.2914C29.0456 58.4622 29.0439 57.6331 29.0456 56.8039C29.0456 56.6949 29.0381 56.5594 29.2011 56.571C29.355 56.5818 29.3425 56.7191 29.3433 56.8255C29.3483 57.2388 29.3458 57.653 29.3458 58.068Z" fill="#131300"/>
  <path d="M50.998 42.8435C50.9989 42.8227 50.9989 42.8027 50.9997 42.7819C52.6073 42.7811 54.2141 42.7811 55.8217 42.7803C55.8492 42.7944 55.8583 42.8086 55.85 42.8227C55.8409 42.8368 55.8317 42.8443 55.8226 42.8443C54.961 42.8934 54.0993 42.9441 53.2361 42.9167C52.7279 42.767 52.209 42.8842 51.6958 42.8526C51.4638 42.8377 51.2309 42.8451 50.998 42.8435Z" fill="#323209"/>
  <path d="M39.9699 31.6576C39.772 31.5678 39.5299 31.7133 39.3486 31.5378C39.589 31.379 39.6547 31.3748 40.399 31.4896C40.1096 31.8788 39.895 32.2847 39.7487 32.7238C39.7245 32.7953 39.6713 32.8984 39.5732 32.8527C39.4859 32.8119 39.5116 32.708 39.5441 32.6331C39.6813 32.308 39.826 31.9844 39.9699 31.6576Z" fill="#101000"/>
  <path d="M38.8205 31.6497C38.6159 31.5832 38.3672 31.6955 38.1318 31.5C38.5219 31.3196 38.8546 31.4851 39.2646 31.4302C38.9652 31.8976 38.7273 32.3067 38.5793 32.7592C38.5577 32.824 38.4986 32.8856 38.4221 32.8482C38.3506 32.8132 38.3531 32.7342 38.3813 32.6685C38.5244 32.3309 38.6716 31.994 38.8205 31.6497Z" fill="#100F00"/>
  <path d="M41.6002 31.4724C41.1719 31.9082 41.0438 32.4313 40.7436 32.8663C40.6987 32.408 40.959 32.0538 41.1345 31.657C40.9207 31.5747 40.6629 31.7086 40.4434 31.4957C40.8226 31.3269 41.1619 31.4574 41.6002 31.4724Z" fill="#0F0E00"/>
  <path d="M42.2721 35.3789C42.46 35.522 42.6838 35.3989 42.8825 35.4621C42.4916 35.5652 42.0908 35.5245 41.6941 35.5444C41.6142 35.576 41.5311 35.6126 41.5386 35.4671C41.7831 35.438 42.0276 35.408 42.2721 35.3789Z" fill="#121200"/>
  <path d="M37.6055 37.2107C37.6313 37.1808 37.657 37.1517 37.6836 37.1217C37.9415 37.1067 38.2026 37.0652 38.4754 37.2589C38.1544 37.2789 37.8774 37.3255 37.6055 37.2107Z" fill="#98950A"/>
  <path d="M57.4014 42.7628C57.7656 42.5516 58.1124 42.8044 58.4709 42.8468C58.2505 42.8468 58.0301 42.8468 57.8105 42.8468C57.6949 42.767 57.561 42.8327 57.4396 42.8019C57.4263 42.7886 57.4138 42.7753 57.4014 42.7628Z" fill="#D6D20E"/>
  <path d="M36.3428 28.311C36.4301 28.2769 36.539 28.3168 36.6106 28.2295C36.8576 28.2578 37.1046 28.286 37.3516 28.3143C37.3607 28.4757 37.2593 28.4116 37.1828 28.3975C36.9017 28.375 36.6147 28.4183 36.3428 28.311Z" fill="#1F1E00"/>
  <path d="M38.7862 28.5731C38.5151 28.5548 38.298 28.5406 38.0244 28.5223C38.3471 28.336 38.3504 28.3369 38.7862 28.5731Z" fill="#C6C214"/>
  <path d="M41.9469 37.1942C42.0284 37.2 42.1107 37.205 42.1922 37.2108C41.8645 37.2965 41.7498 37.3015 41.3447 37.2424C41.5343 37.0137 41.7456 37.1684 41.9469 37.1942Z" fill="#9C990A"/>
  <path d="M37.0723 35.4593C37.2228 35.4277 37.39 35.5001 37.5255 35.3828C37.6802 35.4078 37.8341 35.4319 37.9888 35.4568C37.6786 35.5126 37.3725 35.5799 37.0723 35.4593Z" fill="#030300"/>
  <path d="M42.5352 28.3975C42.3473 28.4756 42.1576 28.4873 41.9414 28.4391C42.0346 28.2736 42.161 28.311 42.2757 28.3118C42.3498 28.38 42.4728 28.296 42.5352 28.3975Z" fill="#6F6E14"/>
  <path d="M41.5351 28.4559C41.333 28.6023 41.1709 28.5233 41.0137 28.5241C41.1634 28.4434 41.3064 28.3295 41.5351 28.4559Z" fill="#C2BF13"/>
  <path d="M37.1826 28.3961C37.2392 28.3687 37.2949 28.3404 37.3514 28.3129C37.4629 28.3055 37.5827 28.2655 37.6883 28.4019C37.5003 28.5101 37.3415 28.4635 37.1826 28.3961Z" fill="#747314"/>
  <path d="M38.0752 33.9675C38.1409 33.9409 38.2066 33.9143 38.2731 33.8877C38.437 33.9143 38.6008 33.9401 38.7655 33.9667C38.7705 34.1131 38.6865 34.079 38.6033 34.0457C38.427 34.0233 38.2382 34.0806 38.0752 33.9675Z" fill="#111000"/>
  <path d="M41.0303 33.9648C41.0578 33.9923 41.0852 34.0206 41.1118 34.048C40.9455 34.1811 40.7634 34.112 40.459 34.0921C40.7293 34.0322 40.8798 33.9989 41.0303 33.9648Z" fill="#757305"/>
  <path d="M42.5349 28.3971C42.4517 28.3588 42.3411 28.4029 42.2754 28.3114C42.4234 28.3056 42.5723 28.299 42.7203 28.2931C42.826 28.2873 42.959 28.1759 43.0139 28.3688C42.8542 28.378 42.6946 28.3871 42.5349 28.3971Z" fill="#2B2A00"/>
  <path d="M25.5526 40.0164C25.5509 39.9931 25.5484 39.9698 25.5459 39.9465C25.6698 39.9582 25.8137 39.8866 25.9185 40.0471C25.7821 40.1311 25.664 40.1445 25.5526 40.0164Z" fill="#BFBB0D"/>
  <path d="M41.113 39.9349C41.0565 39.9607 40.9999 39.9864 40.9434 40.0122C40.807 39.9848 40.6706 39.9582 40.5342 39.9307C40.5076 39.8542 40.5292 39.8209 40.6124 39.8442C40.7812 39.865 40.96 39.8276 41.113 39.9349Z" fill="#313000"/>
  <path d="M38.4412 35.57C38.304 35.6332 38.2108 35.6282 38.1352 35.5409C38.1318 35.5201 38.1235 35.4984 38.1285 35.4951C38.2408 35.4228 38.3414 35.4211 38.4412 35.57Z" fill="#8A870F"/>
  <path d="M41.5383 35.4675C41.5899 35.4933 41.6414 35.519 41.6938 35.5448C41.5608 35.6479 41.4086 35.5997 41.2256 35.6255C41.3137 35.4691 41.421 35.4575 41.5383 35.4675Z" fill="#8D8A09"/>
  <path d="M38.77 40.0082C38.7126 39.9833 38.656 39.9575 38.5986 39.9325C38.7259 39.8361 38.8772 39.8627 39.0211 39.8477C39.1035 39.8144 39.1858 39.782 39.1733 39.9275C39.0386 39.955 38.9039 39.9816 38.77 40.0082Z" fill="#3A3901"/>
  <path d="M27.9512 39.0128C28.0493 38.9346 28.2073 38.9987 28.2838 38.8698C28.4161 38.8623 28.4951 38.9246 28.3504 39.002C28.2464 39.0585 28.0867 39.0128 27.9512 39.0128Z" fill="#B5B20C"/>
  <path d="M43.0144 28.3689C42.9338 28.2783 42.8231 28.3024 42.7217 28.2932C42.8406 28.22 42.9703 28.2092 43.1042 28.2275C43.1733 28.319 43.2864 28.2724 43.3712 28.3132C43.2598 28.3764 43.1383 28.3789 43.0144 28.3689Z" fill="#2D2C01"/>
  <path d="M56.8986 42.8385C56.6774 42.8393 56.4562 42.841 56.2349 42.8418C56.2092 42.8285 56.2008 42.8144 56.2092 42.8011C56.2175 42.7869 56.2258 42.7803 56.2341 42.7803C56.4553 42.7803 56.6774 42.7803 56.8986 42.7803C56.9286 42.7936 56.9385 42.8061 56.9286 42.8194C56.9194 42.8318 56.9094 42.8385 56.8986 42.8385Z" fill="#605F00"/>
  <path d="M54.0893 39.9481C54.1135 39.9772 54.1384 40.0072 54.1634 40.0363C54.0577 40.1344 53.9396 40.1161 53.7949 40.0737C53.8523 39.914 53.9746 39.9398 54.0893 39.9481Z" fill="#BCB90B"/>
  <path d="M38.6025 34.0467C38.6566 34.0201 38.7107 33.9935 38.7647 33.9677C38.8803 33.9519 38.9701 34.0026 39.0649 34.0883C38.8936 34.1449 38.7439 34.1474 38.6025 34.0467Z" fill="#777505"/>
  <path d="M39.1727 39.9276C39.122 39.901 39.0712 39.8744 39.0205 39.8478C39.1195 39.7471 39.2409 39.7787 39.369 39.7762C39.3515 39.9118 39.2559 39.9118 39.1727 39.9276Z" fill="#BAB712"/>
  <path d="M56.8994 42.8394C56.9002 42.8202 56.9002 42.8003 56.8994 42.7811C57.0666 42.7753 57.2337 42.7695 57.4009 42.7637L57.3943 42.7878C57.3951 42.8044 57.3968 42.8219 57.3976 42.8385C57.2321 42.8385 57.0657 42.8385 56.8994 42.8394Z" fill="#868400"/>
  <path d="M22.4848 29.2197C22.4573 29.1923 22.4299 29.1649 22.4016 29.1366C22.3958 29.0451 22.4989 28.9411 22.5114 28.9519C22.6162 29.0434 22.5471 29.1341 22.4848 29.2197Z" fill="#676502"/>
  <path d="M40.6128 39.8442C40.5871 39.8733 40.5605 39.9016 40.5347 39.9307C40.4473 39.9299 40.3825 39.8916 40.3301 39.8151C40.4357 39.7444 40.5272 39.7668 40.6128 39.8442Z" fill="#A8A50E"/>
  <path d="M57.3979 42.8379C57.3995 42.8205 57.3979 42.8038 57.3945 42.7864C57.5359 42.7855 57.6873 42.7198 57.8104 42.8462C57.6731 42.8437 57.5351 42.8404 57.3979 42.8379Z" fill="#A19F00"/>
  <path d="M56.2356 42.7801C56.2381 42.8009 56.2381 42.8217 56.2364 42.8417C56.0984 42.8425 55.9612 42.8433 55.8231 42.8433C55.8231 42.8217 55.8223 42.8009 55.8223 42.7793C55.9603 42.7801 56.0975 42.7801 56.2356 42.7801Z" fill="#393800"/>
  <path d="M16.4785 51.9148C15.5346 51.9148 15.5604 51.9139 15.523 50.9833C15.5055 50.5409 15.6411 50.4045 16.0677 50.451C16.3954 50.486 16.7289 50.4544 17.0599 50.4585C17.6895 50.4668 18.0138 50.7163 18.0138 51.1871C18.0138 51.6553 17.6986 51.8957 17.0574 51.9131C16.8644 51.9198 16.6715 51.9148 16.4785 51.9148Z" fill="#FDF800"/>
  <path d="M16.529 48.0859C16.791 48.0859 17.0555 48.0676 17.3158 48.0901C17.6834 48.1225 17.893 48.3354 17.9029 48.7122C17.9121 49.0581 17.6917 49.3159 17.3191 49.3359C16.796 49.3634 16.2704 49.3484 15.7456 49.3509C15.7315 49.3509 15.714 49.3559 15.7048 49.3492C15.3264 49.0681 15.6225 48.6739 15.5385 48.3421C15.4928 48.1616 15.5726 48.0601 15.783 48.0734C16.0309 48.0884 16.2804 48.0768 16.529 48.0768C16.529 48.0801 16.529 48.0826 16.529 48.0859Z" fill="#FDF800"/>
  <path d="M33.5817 48.0771C34.4933 48.0771 34.4933 48.0771 34.4933 48.962C34.4933 49.6715 34.4933 49.6765 33.7863 49.669C33.4162 49.6648 33.0437 49.7139 32.6794 49.59C32.3234 49.4694 32.1929 49.2115 32.1953 48.8614C32.1978 48.5138 32.3143 48.2535 32.6835 48.142C32.9971 48.0464 33.3123 48.0979 33.5817 48.0771Z" fill="#FDF900"/>
  <path d="M26.1689 49.9663C26.1847 49.6802 26.1872 49.3899 26.218 49.1022C26.2945 48.3844 26.8043 47.9827 27.6069 47.9944C28.328 48.0044 28.8228 48.4435 28.8852 49.1371C28.9359 49.7018 28.9376 50.2673 28.886 50.8312C28.8211 51.5523 28.2914 52.0047 27.5312 51.9981C26.7935 51.9914 26.2771 51.5415 26.2139 50.8379C26.1881 50.5493 26.1831 50.2599 26.1689 49.9663Z" fill="#FEFA00"/>
  <path d="M62.4811 49.9826C62.4895 49.6117 62.4304 49.2358 62.5477 48.8698C62.7514 48.2353 63.2296 47.9458 64.0106 47.9957C64.626 48.0348 65.0543 48.4265 65.15 49.0603C65.2406 49.6657 65.2398 50.2762 65.1566 50.8816C65.0585 51.5952 64.532 52.0169 63.7935 51.9969C63.0525 51.977 62.5527 51.5345 62.4853 50.8126C62.4595 50.5382 62.4811 50.2595 62.4811 49.9826Z" fill="#FEFA00"/>
  <path d="M9.73633 50.7237C10.0357 49.9419 10.3243 49.1884 10.6487 48.3418C10.9705 49.176 11.2641 49.9336 11.5693 50.7237C10.9356 50.7237 10.3617 50.7237 9.73633 50.7237Z" fill="#FCF700"/>
  <path d="M53.0084 50.7222C52.3713 50.7222 51.7949 50.7222 51.1729 50.7222C51.4731 49.9437 51.7617 49.1936 52.0902 48.3428C52.417 49.1902 52.7048 49.9354 53.0084 50.7222Z" fill="#FCF800"/>
  <path d="M39.063 49.7304C38.208 49.7529 38.208 49.7529 38.208 48.8913C38.208 48.0762 38.208 48.0754 39.0305 48.0762C39.2933 48.0771 39.5586 48.0654 39.8198 48.0904C40.3171 48.1378 40.5691 48.3972 40.5916 48.8505C40.6149 49.3295 40.3828 49.6448 39.8921 49.7229C39.6218 49.7662 39.3399 49.7304 39.063 49.7304Z" fill="#FDF900"/>
  <path d="M57.8937 48.0786C58.1008 48.0786 58.3079 48.0678 58.5142 48.0803C59.0863 48.1152 59.3483 48.3714 59.355 48.887C59.3616 49.4051 59.1055 49.7012 58.5532 49.7403C58.1 49.7727 57.6434 49.7436 57.1885 49.7544C57.0171 49.7586 56.9822 49.6854 56.9847 49.534C56.9922 49.134 56.9955 48.734 56.9839 48.3339C56.9781 48.1443 57.0238 48.0553 57.2325 48.0711C57.4521 48.0878 57.6733 48.0744 57.8946 48.0744C57.8937 48.0769 57.8937 48.0778 57.8937 48.0786Z" fill="#FEFA00"/>
  <path d="M48.0044 58.0552C48.0044 58.3172 47.9745 58.5834 48.0111 58.8395C48.0668 59.2287 47.8955 59.3102 47.5545 59.2745C47.2825 59.2454 46.9299 59.3593 46.7511 59.2262C46.5556 59.0799 46.7419 58.7206 46.7261 58.4519C46.7012 58.012 46.7361 57.5695 46.7128 57.1296C46.6987 56.8626 46.7985 56.8161 47.0413 56.8152C48.0036 56.8102 48.0036 56.8019 48.0036 57.7658C48.0044 57.8623 48.0044 57.9588 48.0044 58.0552Z" fill="#FEFA00"/>
  <path d="M62.0447 59.2818C61.8592 59.2285 61.5607 59.3749 61.5133 59.1928C61.4334 58.8825 61.4875 58.5374 61.4891 58.2064C61.4891 58.1864 61.5208 58.1623 61.5432 58.1482C61.6863 58.0575 62.7516 58.1698 62.8714 58.2929C63.0161 58.4409 63.0785 58.6231 63.0294 58.8252C62.977 59.0406 62.8464 59.2044 62.6169 59.2402C62.4273 59.2709 62.2327 59.2693 62.0447 59.2818Z" fill="#FDF900"/>
  <path d="M62.0412 57.8296C61.8873 57.788 61.5854 57.9452 61.5114 57.7589C61.4166 57.5211 61.4823 57.2192 61.4798 56.9447C61.479 56.8283 61.5622 56.8208 61.6487 56.8224C61.9505 56.8299 62.2549 56.8166 62.5543 56.8524C62.8338 56.8857 62.9951 57.0578 62.9735 57.363C62.9527 57.6641 62.7764 57.8022 62.4953 57.8271C62.3589 57.8388 62.22 57.8296 62.0412 57.8296Z" fill="#FDF900"/>
  <path d="M31.7816 57.3703C31.8016 57.762 31.8964 58.0822 31.3325 58.0381C30.5466 57.9774 30.2846 57.8693 30.2963 57.4044C30.3071 56.962 30.5732 56.8597 31.3725 56.8073C31.9754 56.769 31.7525 57.1649 31.7816 57.3703Z" fill="#FEFA00"/>
  <path d="M68.1316 57.9663C68.1233 58.2973 68.1407 58.5177 68.07 58.7348C67.9303 59.1606 67.6492 59.3502 67.1868 59.3136C66.7943 59.2828 66.5323 59.0458 66.4666 58.6358C66.4092 58.279 66.4084 57.9189 66.4566 57.5596C66.5215 57.0722 66.7793 56.8169 67.2276 56.7936C67.6983 56.7695 68.0102 57.0115 68.1 57.4964C68.1349 57.686 68.1266 57.8831 68.1316 57.9663Z" fill="#FEFA00"/>
  <path d="M15.9096 58.1025C15.9096 58.268 15.9263 58.436 15.9063 58.5998C15.8548 59.0215 15.5745 59.2868 15.1753 59.315C14.7054 59.3483 14.3719 59.1362 14.2829 58.6938C14.1989 58.2721 14.1947 57.8372 14.2862 57.4163C14.3802 56.9839 14.6912 56.7768 15.1395 56.7984C15.5645 56.8184 15.8539 57.0828 15.9055 57.5228C15.9279 57.7132 15.9096 57.9087 15.9096 58.1025Z" fill="#FEFA00"/>
  <path d="M45.3007 58.0466C45.2882 58.2395 45.2874 58.4341 45.2599 58.6246C45.2026 59.0246 44.9298 59.2808 44.548 59.3132C44.0848 59.3531 43.7887 59.1718 43.6656 58.7427C43.5409 58.3094 43.5625 57.8611 43.6415 57.4278C43.723 56.9779 44.0573 56.7683 44.5264 56.8024C44.9456 56.8323 45.2208 57.1068 45.2674 57.5501C45.2849 57.7148 45.2899 57.8811 45.3007 58.0466Z" fill="#FEFA00"/>
  <path d="M24.2512 56.917C24.4458 57.4118 24.6088 57.8335 24.7784 58.2527C24.8558 58.4439 24.8167 58.5121 24.5955 58.5271C23.5941 58.5953 23.595 58.602 23.9468 57.6921C24.0366 57.4642 24.1264 57.2355 24.2512 56.917Z" fill="#FBF800"/>
  <path d="M41.0222 57.4171C41.0222 57.3206 41.0347 57.2225 41.0197 57.1285C40.9756 56.8615 41.0962 56.7933 41.3407 56.8183C41.5728 56.8424 41.8106 56.8166 42.041 56.8482C42.3911 56.8964 42.5674 57.1102 42.5574 57.4745C42.5483 57.8254 42.3504 58.01 42.0268 58.0475C41.7549 58.0791 41.4771 58.0566 41.2027 58.0691C41.0505 58.0757 41.0147 58.0042 41.0214 57.8703C41.0272 57.7198 41.0222 57.5684 41.0222 57.4171Z" fill="#FDF900"/>
  <path d="M59.4181 56.9775C59.601 57.4466 59.759 57.8691 59.9312 58.2858C60.0052 58.4646 59.9753 58.5178 59.774 58.5336C58.7228 58.6168 58.7203 58.6209 59.1037 57.6479C59.1885 57.4333 59.2359 57.1963 59.4181 56.9775Z" fill="#F7F300"/>
  <path d="M50.7499 58.5103C50.3108 58.5103 49.9307 58.5103 49.5049 58.5103C49.7086 57.983 49.8999 57.4873 50.1228 56.9102C50.3449 57.4774 50.537 57.9672 50.7499 58.5103Z" fill="#F6F200"/>
</svg>