<svg width="20" height="20" viewBox="0 0 20 20" fill="none" xmlns="http://www.w3.org/2000/svg">
<g id="percent_svgrepo.com">
<path id="Vector" d="M18.0886 3.08861C18.414 2.76317 18.414 2.23553 18.0886 1.91009C17.7632 1.58466 17.2355 1.58466 16.9101 1.91009L1.91009 16.9101C1.58466 17.2355 1.58466 17.7632 1.91009 18.0886C2.23553 18.414 2.76317 18.414 3.08861 18.0886L18.0886 3.08861Z" fill="#141414"/>
<path id="Vector_2" fill-rule="evenodd" clip-rule="evenodd" d="M9.16602 5.41602C9.16602 7.48708 7.48708 9.16602 5.41602 9.16602C3.34495 9.16602 1.66602 7.48708 1.66602 5.41602C1.66602 3.34495 3.34495 1.66602 5.41602 1.66602C7.48708 1.66602 9.16602 3.34495 9.16602 5.41602ZM3.33846 5.41602C3.33846 6.56342 4.26861 7.49357 5.41602 7.49357C6.56342 7.49357 7.49357 6.56342 7.49357 5.41602C7.49357 4.26861 6.56342 3.33846 5.41602 3.33846C4.26861 3.33846 3.33846 4.26861 3.33846 5.41602Z" fill="#141414"/>
<path id="Vector_3" fill-rule="evenodd" clip-rule="evenodd" d="M18.333 14.583C18.333 16.6541 16.6541 18.333 14.583 18.333C12.5119 18.333 10.833 16.6541 10.833 14.583C10.833 12.5119 12.5119 10.833 14.583 10.833C16.6541 10.833 18.333 12.5119 18.333 14.583ZM12.5054 14.583C12.5054 15.7304 13.4356 16.6606 14.583 16.6606C15.7304 16.6606 16.6606 15.7304 16.6606 14.583C16.6606 13.4356 15.7304 12.5054 14.583 12.5054C13.4356 12.5054 12.5054 13.4356 12.5054 14.583Z" fill="#141414"/>
</g>
</svg>
