<svg width="40" height="40" viewBox="0 0 40 40" fill="none" xmlns="http://www.w3.org/2000/svg">
<g clip-path="url(#clip0_1_4575)">
<path d="M35 0H5C2.23858 0 0 2.23858 0 5V35C0 37.7614 2.23858 40 5 40H35C37.7614 40 40 37.7614 40 35V5C40 2.23858 37.7614 0 35 0Z" fill="#7D3DAF"/>
<path d="M32.6507 12.894L32.6428 12.8624C32.0038 10.2793 29.1231 7.5075 26.4777 6.93085L26.4479 6.9247C22.169 6.10843 17.8305 6.10843 13.5526 6.9247L13.5218 6.93085C10.8773 7.5075 7.99665 10.2793 7.3568 12.8624L7.34978 12.894C6.55984 16.5014 6.55984 20.1597 7.34978 23.7671L7.3568 23.7987C7.96936 26.2716 10.6355 28.916 13.1822 29.6433V32.5267C13.1822 33.5703 14.454 34.0829 15.1772 33.3298L18.0987 30.2931C18.7323 30.3285 19.3663 30.3483 20.0002 30.3483C22.1541 30.3483 24.3089 30.1446 26.4479 29.7365L26.4777 29.7304C29.1231 29.1537 32.0038 26.3819 32.6428 23.7988L32.6507 23.7672C33.4406 20.1597 33.4406 16.5014 32.6507 12.894ZM30.3388 23.244C29.9122 24.9292 27.725 27.0243 25.9871 27.4114C23.712 27.844 21.4189 28.0289 19.128 27.9655C19.0825 27.9642 19.0387 27.9819 19.0069 28.0145C18.6818 28.3482 16.8738 30.2042 16.8738 30.2042L14.6049 32.5328C14.439 32.7057 14.1476 32.5881 14.1476 32.3494V27.5727C14.1476 27.4938 14.0913 27.4267 14.0138 27.4115C14.0134 27.4114 14.0129 27.4114 14.0125 27.4113C12.2746 27.0242 10.0882 24.9291 9.66079 23.2439C8.94985 19.9832 8.94985 16.6777 9.66079 13.417C10.0882 11.7318 12.2746 9.63674 14.0125 9.24967C17.9859 8.49396 22.0146 8.49396 25.9871 9.24967C27.7258 9.63674 29.9122 11.7318 30.3388 13.417C31.0505 16.6778 31.0505 19.9833 30.3388 23.244Z" fill="white"/>
<path d="M23.7806 25.4482C23.5135 25.3671 23.2588 25.3126 23.0224 25.2145C20.5722 24.1979 18.3172 22.8864 16.5309 20.876C15.5152 19.7328 14.7201 18.4421 14.0481 17.0762C13.7294 16.4285 13.4608 15.7554 13.187 15.0866C12.9374 14.4768 13.3051 13.8468 13.6922 13.3873C14.0555 12.9561 14.523 12.6261 15.0293 12.3829C15.4244 12.193 15.8142 12.3025 16.1028 12.6374C16.7267 13.3615 17.2997 14.1227 17.7638 14.962C18.0491 15.4783 17.9708 16.1094 17.4537 16.4607C17.328 16.5461 17.2134 16.6463 17.0964 16.7428C16.9937 16.8273 16.897 16.9127 16.8266 17.0272C16.698 17.2366 16.6918 17.4836 16.7747 17.7113C17.4124 19.4639 18.4873 20.8267 20.2514 21.5607C20.5336 21.6782 20.8171 21.8149 21.1423 21.777C21.687 21.7134 21.8633 21.116 22.2449 20.8039C22.6179 20.4989 23.0946 20.4948 23.4964 20.7491C23.8983 21.0035 24.288 21.2765 24.6752 21.5525C25.0553 21.8233 25.4338 22.0883 25.7845 22.3971C26.1216 22.694 26.2377 23.0836 26.0479 23.4865C25.7003 24.2245 25.1946 24.8385 24.465 25.2304C24.259 25.3409 24.013 25.3767 23.7806 25.4482C24.013 25.3767 23.5135 25.367 23.7806 25.4482Z" fill="white"/>
<path d="M20.0065 11.5394C23.2115 11.6292 25.8438 13.7562 26.4079 16.9247C26.504 17.4646 26.5383 18.0166 26.581 18.5645C26.599 18.795 26.4685 19.014 26.2198 19.017C25.9628 19.0201 25.8473 18.8051 25.8306 18.5747C25.7976 18.1187 25.7747 17.6606 25.7118 17.2083C25.38 14.8208 23.4763 12.8456 21.0999 12.4218C20.7423 12.358 20.3763 12.3412 20.0141 12.3032C19.7851 12.2792 19.4852 12.2653 19.4344 11.9806C19.3919 11.742 19.5933 11.552 19.8205 11.5398C19.8823 11.5363 19.9445 11.5392 20.0065 11.5394C23.2115 11.6292 19.9445 11.5392 20.0065 11.5394Z" fill="white"/>
<path d="M24.8773 17.8533C24.8721 17.8933 24.8692 17.9874 24.8458 18.0761C24.7608 18.3978 24.2729 18.4381 24.1606 18.1134C24.1273 18.017 24.1223 17.9074 24.1221 17.8036C24.121 17.1248 23.9735 16.4467 23.6311 15.8561C23.2793 15.249 22.7417 14.7387 22.1111 14.43C21.7298 14.2433 21.3175 14.1272 20.8996 14.0581C20.717 14.0279 20.5324 14.0095 20.3489 13.984C20.1264 13.9531 20.0077 13.8114 20.0182 13.5922C20.0281 13.3868 20.1781 13.2391 20.402 13.2517C21.1375 13.2935 21.8479 13.4525 22.5018 13.7987C23.8315 14.5029 24.5911 15.6144 24.8128 17.0986C24.8228 17.1659 24.839 17.2325 24.8441 17.3C24.8566 17.4667 24.8645 17.6335 24.8773 17.8533C24.8721 17.8933 24.8645 17.6335 24.8773 17.8533Z" fill="white"/>
<path d="M22.8838 17.7758C22.6157 17.7806 22.4722 17.6322 22.4445 17.3863C22.4253 17.2149 22.4101 17.0412 22.3692 16.8745C22.2886 16.546 22.1141 16.2416 21.8378 16.0404C21.7073 15.9453 21.5595 15.8761 21.4047 15.8314C21.208 15.7746 21.0038 15.7902 20.8075 15.7421C20.5944 15.6899 20.4765 15.5174 20.51 15.3174C20.5405 15.1355 20.7175 14.9934 20.9163 15.0078C22.1589 15.0975 23.047 15.7399 23.1737 17.2027C23.1827 17.306 23.1932 17.4151 23.1703 17.5138C23.1311 17.6828 23.0059 17.7675 22.8838 17.7758C23.0059 17.7675 22.6157 17.7806 22.8838 17.7758Z" fill="white"/>
</g>
<defs>
<clipPath id="clip0_1_4575">
<rect width="40" height="40" fill="white"/>
</clipPath>
</defs>
</svg>
